<svg width="25" height="25" viewBox="0 0 25 25" fill="none" xmlns="http://www.w3.org/2000/svg">
<path d="M12.5 0.515625C5.81055 0.515625 0.390625 5.98438 0.390625 12.625C0.390625 19.3145 5.81055 24.7344 12.5 24.7344C19.1406 24.7344 24.6094 19.3145 24.6094 12.625C24.6094 5.98438 19.1406 0.515625 12.5 0.515625ZM12.5 23.1719C6.68945 23.1719 1.95312 18.4844 1.95312 12.625C1.95312 6.86328 6.64062 2.07812 12.5 2.07812C18.2617 2.07812 23.0469 6.81445 23.0469 12.625C23.0469 18.4355 18.3105 23.1719 12.5 23.1719ZM19.3848 9.79297C19.6289 9.54883 19.6289 9.1582 19.3848 8.96289L18.9941 8.52344C18.75 8.2793 18.3594 8.2793 18.1641 8.52344L10.1562 16.4336L6.78711 13.0645C6.5918 12.8203 6.20117 12.8203 5.95703 13.0645L5.56641 13.4551C5.32227 13.6992 5.32227 14.041 5.56641 14.2852L9.76562 18.5332C9.96094 18.7285 10.3516 18.7285 10.5957 18.5332L19.3848 9.79297Z" fill="#EB233D"/>
</svg>
