<svg width="17" height="23" viewBox="0 0 17 23" fill="none" xmlns="http://www.w3.org/2000/svg">
<path d="M15.7266 17.0938H14.8965C14.6035 17.0938 14.3105 17.3867 14.3105 17.6797V20.7559H5.42383V13.1875H10.6484C10.9414 13.1875 11.2344 12.9434 11.2344 12.6016V12.2109C11.2344 11.918 10.9414 11.625 10.6484 11.625H5.42383V6.49805C5.42383 4.44727 6.9375 2.68945 9.62305 2.68945C10.9902 2.68945 12.1133 3.27539 12.6992 3.66602C12.9434 3.8125 13.2852 3.76367 13.4805 3.51953L14.0176 2.88477C14.2129 2.64062 14.1641 2.25 13.8711 2.05469C13.1387 1.51758 11.625 0.6875 9.62305 0.6875C5.91211 0.6875 3.27539 3.17773 3.27539 6.35156V11.625H1.66406C1.32227 11.625 1.07812 11.918 1.07812 12.2109V12.6016C1.07812 12.9434 1.32227 13.1875 1.66406 13.1875H3.27539V20.8047H1.27344C0.931641 20.8047 0.6875 21.0488 0.6875 21.3906V21.9766C0.6875 22.3184 0.931641 22.5625 1.27344 22.5625H15.7266C16.0195 22.5625 16.3125 22.3184 16.3125 21.9766V17.6797C16.3125 17.3867 16.0195 17.0938 15.7266 17.0938Z" fill="#EB233D"/>
</svg>
