<svg width="60" height="53" viewBox="0 0 60 53" fill="none" xmlns="http://www.w3.org/2000/svg">
<path d="M52.75 16.75H43V7C43 3.44531 40.0547 0.5 36.5 0.5H7.25C3.59375 0.5 0.75 3.44531 0.75 7V23.25C0.75 26.9062 3.59375 29.75 7.25 29.75H10.5V35.0312C10.5 35.8438 11.0078 36.25 11.7188 36.25C11.9219 36.25 12.125 36.25 12.4297 36.0469L20.25 31.6797V39.5C20.25 43.1562 23.0938 46 26.75 46H36.5L47.4688 52.2969C47.7734 52.5 47.9766 52.5 48.2812 52.5C48.8906 52.5 49.5 52.0938 49.5 51.2812V46H52.75C56.3047 46 59.25 43.1562 59.25 39.5V23.25C59.25 19.6953 56.3047 16.75 52.75 16.75ZM7.25 26.5C5.42188 26.5 4 25.0781 4 23.25V7C4 5.27344 5.42188 3.75 7.25 3.75H36.5C38.2266 3.75 39.75 5.27344 39.75 7V23.25C39.75 25.0781 38.2266 26.5 36.5 26.5H22.5859L21.875 27.0078L13.75 31.5781V26.5H7.25ZM56 39.5C56 41.3281 54.4766 42.75 52.75 42.75H46.25V47.8281L38.0234 43.2578L37.3125 42.75H26.75C24.9219 42.75 23.5 41.3281 23.5 39.5V29.75H36.5C40.0547 29.75 43 26.9062 43 23.25V20H52.75C54.4766 20 56 21.5234 56 23.25V39.5Z" fill="#EB233D"/>
</svg>
