<svg width="557" height="659" viewBox="0 0 557 659" fill="none" xmlns="http://www.w3.org/2000/svg">
<path fill-rule="evenodd" clip-rule="evenodd" d="M39.6567 290.196C38.0889 292.128 36.2798 293.215 35.5562 294.664C34.8326 295.992 35.4356 297.562 34.3502 298.89C33.3853 300.098 30.8527 301.064 28.0788 300.943C25.3049 300.822 22.2898 299.735 19.8778 299.856C17.5863 299.977 16.0185 301.547 15.2948 303.358C14.5712 305.29 14.6918 307.584 15.7773 309.275C16.9833 310.966 19.1541 312.052 19.8778 313.501C20.722 314.95 19.9984 316.883 18.1893 317.728C16.3803 318.573 13.2446 318.332 9.62648 319.298C5.88777 320.264 1.42544 322.558 0.340011 324.611C-0.866023 326.664 1.30484 328.596 4.19932 331.494C7.0938 334.513 10.9531 338.619 13.4858 342.241C16.0185 345.864 17.4657 349.004 19.6366 350.09C21.8074 351.177 25.0637 350.09 27.2346 351.419C29.4054 352.747 30.4909 356.37 31.9381 358.302C33.3853 360.113 35.0738 360.113 36.8828 359.63C38.8125 359.147 40.8628 358.06 43.1542 358.302C45.4457 358.543 47.9784 360.113 50.0286 358.905C52.0789 357.698 53.5261 353.713 55.9382 351.539C58.3503 349.366 61.7272 348.883 61.9684 347.554C62.2096 346.226 59.4357 344.053 58.9533 341.637C58.4709 339.222 60.4005 336.686 62.2096 334.754C64.0186 332.822 65.7071 331.494 67.6367 333.185C69.687 334.996 71.9784 339.947 73.3051 343.811C74.6317 347.675 75.1141 350.332 76.5614 351.539C78.0086 352.747 80.4207 352.264 81.6267 353.23C82.8327 354.196 82.8328 356.49 82.8328 359.026C82.8328 361.562 82.7122 364.46 83.677 365.547C84.6418 366.634 86.5715 366.03 89.3453 365.909C92.1192 365.788 95.7373 366.272 97.7876 365.185C99.8378 364.219 100.32 361.804 102.25 360.958C104.18 360.113 107.556 360.958 110.089 362.407C112.622 363.736 114.431 365.668 116.361 366.272C118.29 366.875 120.22 366.151 122.029 365.064C123.717 364.098 125.285 362.77 126.25 360.958C127.335 359.147 127.938 356.853 128.3 354.558C128.662 352.264 128.783 350.09 129.747 348.883C130.712 347.675 132.642 347.434 134.813 347.313C136.984 347.192 139.516 347.192 141.687 346.468C143.858 345.743 145.667 344.294 146.27 342.724C146.873 341.154 146.391 339.464 145.064 337.411C143.858 335.358 141.808 332.822 140.602 329.683C139.396 326.664 138.913 323.041 139.396 321.713C139.758 320.384 141.084 321.23 143.014 323.041C144.944 324.852 147.597 327.751 149.044 327.509C150.491 327.268 150.732 323.886 150.009 320.264C149.406 316.641 147.959 312.777 146.391 310.362C144.944 307.947 143.496 306.981 140.602 306.86C137.707 306.739 133.366 307.343 130.109 308.43C126.853 309.516 124.441 310.966 123.355 310.483C122.149 309.999 122.149 307.464 124.32 305.652C126.491 303.841 130.833 302.754 133.366 300.701C136.019 298.648 136.984 295.63 136.742 293.577C136.501 291.524 135.175 290.437 133.848 290.316C132.521 290.075 131.315 290.679 129.868 289.713C128.421 288.626 126.853 285.969 125.044 282.709C123.235 279.448 121.305 275.705 120.099 273.048C118.893 270.392 118.652 268.943 118.411 266.286C118.29 263.629 118.29 259.765 116.119 257.592C113.948 255.418 109.607 255.056 105.144 254.814C100.682 254.694 96.0991 254.814 92.481 255.66C88.8629 256.626 86.2097 258.437 83.074 258.92C79.9383 259.403 76.4408 258.92 73.9081 258.799C71.496 258.678 70.0488 259.161 69.4458 260.731C68.8428 262.301 68.9634 265.078 68.6016 267.252C68.3604 269.426 67.7573 270.996 65.8277 272.203C63.898 273.411 60.7623 274.135 57.6266 274.014C54.491 273.894 51.3553 272.928 49.4256 273.169C47.496 273.411 46.8929 274.86 46.0487 276.792C45.2045 278.724 44.1191 281.018 43.0336 283.433C42.31 285.728 41.2246 288.384 39.6567 290.196ZM308.844 593.292C304.864 597.397 300.763 600.779 297.989 603.556C295.215 606.333 293.889 608.507 293.165 610.318C292.441 612.13 292.441 613.82 292.562 615.994C292.683 618.167 292.924 620.945 292.2 622.394C291.477 623.843 289.788 623.843 287.738 623.843C285.688 623.843 283.396 623.843 281.587 624.326C279.778 624.809 278.572 625.654 276.884 626.137C275.195 626.62 273.145 626.62 271.939 625.896C270.733 625.292 270.25 623.964 269.044 623.36C267.838 622.877 265.668 623.118 263.135 623.239C260.602 623.36 257.708 623.239 255.899 622.635C254.09 621.911 253.366 620.582 251.678 619.979C249.869 619.375 246.974 619.496 245.286 619.858C243.597 620.099 242.994 620.582 242.632 621.307C242.27 622.031 242.029 622.998 240.1 623.722C238.291 624.447 234.793 624.809 231.175 625.05C227.557 625.292 223.939 625.413 222.009 625.654C220.079 625.896 219.959 626.379 219.838 627.345C219.597 628.311 219.356 630.001 219.356 631.45C219.356 632.899 219.718 634.107 219.838 635.556C220.079 637.005 220.079 638.575 219.597 640.145C219.235 641.715 218.27 643.164 216.703 644.13C215.135 645.096 212.964 645.458 211.034 644.854C209.105 644.251 207.537 642.56 206.089 642.318C204.642 642.077 203.557 643.164 202.833 645.096C202.11 647.028 201.748 649.564 201.627 652.703C201.507 655.843 201.507 659.466 201.386 662.002C201.265 664.537 201.024 666.107 199.939 667.073C198.733 668.039 196.562 668.643 194.873 669.851C193.185 671.058 191.979 672.87 191.255 674.922C190.411 676.975 190.049 679.149 189.687 680.839C189.326 682.53 188.964 683.617 187.637 683.979C186.311 684.341 184.019 683.858 181.848 684.1C179.557 684.341 177.386 685.066 176.18 686.394C174.853 687.722 174.491 689.534 174.009 691.587C173.527 693.64 172.924 695.692 171.838 697.141C170.753 698.47 169.185 698.953 168.461 699.919C167.738 700.885 167.738 702.213 167.496 703.541C167.255 704.87 166.893 706.077 165.084 707.889C163.155 709.7 159.657 712.115 157.245 714.289C154.833 716.462 153.265 718.515 151.335 718.998C149.406 719.481 146.994 718.636 145.064 718.274C143.134 717.911 141.808 718.153 140.24 718.877C138.672 719.602 136.743 720.689 135.536 721.896C134.33 723.225 133.727 724.674 133.486 726.726C133.245 728.779 133.366 731.557 133.607 733.489C133.727 735.421 133.969 736.387 134.933 736.749C135.898 736.991 137.587 736.508 139.396 736.145C141.205 735.783 143.255 735.542 144.22 734.576C145.185 733.73 145.064 732.16 145.185 730.832C145.305 729.504 145.788 728.175 146.391 727.572C146.994 726.847 147.959 726.727 149.285 727.089C150.732 727.451 152.542 728.296 154.23 729.142C155.918 729.987 157.366 730.711 158.451 731.798C159.537 732.885 160.381 734.334 161.225 736.025C162.069 737.715 162.913 739.768 163.637 741.096C164.24 742.545 164.602 743.27 165.446 742.908C166.29 742.545 167.617 740.976 169.305 739.526C170.994 738.077 172.924 736.749 173.888 735.421C174.733 734.093 174.491 732.885 173.888 732.04C173.285 731.194 172.562 730.832 171.959 730.349C171.356 729.987 170.994 729.504 171.356 729.021C171.717 728.659 172.803 728.175 173.406 727.572C174.009 726.968 174.13 726.243 174.009 725.277C174.009 724.432 173.888 723.466 174.612 723.224C175.456 722.983 177.145 723.466 178.351 722.983C179.557 722.5 180.28 720.93 181.245 719.964C182.21 718.998 183.537 718.515 184.984 718.274C186.552 718.032 188.361 717.911 189.205 717.308C190.049 716.583 189.929 715.375 190.049 713.806C190.17 712.236 190.652 710.545 191.255 709.458C191.738 708.372 192.341 708.009 193.426 708.251C194.512 708.492 195.959 709.217 197.768 709.458C199.577 709.7 201.507 709.217 203.677 708.613C205.848 708.009 208.14 707.164 209.708 706.44C211.275 705.715 212.24 704.99 213.687 705.111C215.135 705.232 217.185 706.077 218.753 706.56C220.321 707.043 221.406 707.164 222.13 707.164C222.853 707.164 223.095 707.043 223.095 705.353C222.974 703.662 222.492 700.402 222.853 698.953C223.215 697.504 224.421 697.987 225.386 699.315C226.351 700.643 227.195 702.817 228.763 704.387C230.331 705.957 232.743 706.923 234.914 707.285C237.085 707.647 239.014 707.526 240.22 708.734C241.547 709.941 242.27 712.477 243.235 714.409C244.2 716.341 245.286 717.67 247.095 718.274C248.904 718.877 251.316 718.877 253.245 718.394C255.175 717.911 256.502 716.945 257.105 715.134C257.708 713.443 257.708 710.907 258.552 708.975C259.396 706.923 261.085 705.474 262.532 704.507C263.858 703.541 264.944 703.058 265.547 702.455C266.271 701.851 266.632 701.006 265.668 699.919C264.703 698.953 262.291 697.624 262.17 696.779C262.049 695.934 264.22 695.33 265.065 694.243C265.909 693.156 265.306 691.466 265.306 689.534C265.306 687.602 265.909 685.428 266.512 683.134C267.235 680.839 267.959 678.666 269.044 678.062C270.009 677.579 271.336 678.787 273.024 678.787C274.713 678.787 276.763 677.7 278.813 676.371C280.864 674.922 282.914 673.352 286.17 671.903C289.426 670.575 293.889 669.609 297.748 669.005C301.607 668.522 304.984 668.402 308.844 669.971C312.582 671.541 316.803 674.56 319.819 677.7C322.834 680.839 324.522 683.858 326.09 685.066C327.658 686.273 329.105 685.549 329.467 684.462C329.829 683.254 328.984 681.564 328.984 679.994C329.105 678.424 330.07 676.975 331.879 676.13C333.688 675.164 336.341 674.802 339.236 675.526C342.13 676.251 345.386 678.183 347.919 679.511C350.452 680.839 352.381 681.564 353.708 680.839C355.035 680.115 355.879 678.062 356.361 676.009C356.844 673.956 357.085 672.145 356 670.937C354.914 669.851 352.502 669.488 351.537 668.402C350.452 667.435 350.693 665.745 351.899 665.021C353.105 664.296 355.155 664.537 356.361 665.262C357.567 665.986 358.05 667.194 359.015 667.194C359.979 667.194 361.668 666.107 363.477 665.262C365.286 664.537 367.336 664.175 369.507 663.813C371.799 663.451 374.211 663.209 375.899 662.484C377.588 661.76 378.673 660.673 380 659.949C381.447 659.345 383.256 659.224 385.547 658.741C387.839 658.258 390.613 657.413 391.819 656.326C393.025 655.239 392.542 653.911 391.336 652.703C390.01 651.496 387.839 650.409 387.236 649.201C386.512 647.994 387.236 646.666 389.407 646.907C391.578 647.149 395.075 648.839 397.487 650.771C399.779 652.703 400.985 654.998 402.191 654.998C403.397 654.998 404.723 652.945 406.894 652.341C409.186 651.737 412.321 652.462 414.251 654.394C416.301 656.326 417.145 659.466 419.558 659.949C421.97 660.311 425.95 657.896 429.568 656.085C433.186 654.273 436.321 653.066 441.387 651.858C446.452 650.651 453.568 649.564 459.839 649.564C466.111 649.684 471.779 651.013 475.518 652.1C479.136 653.186 480.945 654.152 482.513 654.635C484.08 655.118 485.528 654.998 487.095 653.79C488.543 652.583 489.99 650.288 491.678 648.718C493.367 647.149 495.176 646.303 497.588 646.062C500 645.82 502.895 646.062 504.342 645.458C505.789 644.975 505.91 643.647 507.357 641.594C508.683 639.541 511.337 636.884 514.593 636.039C517.849 635.194 521.709 636.16 523.638 636.281C525.689 636.401 525.93 635.798 525.93 634.349C525.93 632.899 525.809 630.605 525.93 628.552C526.05 626.499 526.292 624.447 527.377 622.877C528.463 621.307 530.272 619.979 533.287 618.409C536.302 616.839 540.643 615.028 543.659 613.579C546.794 612.13 548.724 611.164 549.447 609.352C550.05 607.541 549.447 604.763 548.844 602.711C548.362 600.658 548 599.209 548.121 597.76C548.241 596.311 548.844 594.862 549.568 593.05C550.171 591.239 550.774 588.944 549.809 587.858C548.724 586.771 545.95 586.892 542.452 587.495C538.955 588.099 534.734 589.186 531.236 590.393C527.859 591.601 525.206 592.809 522.432 593.533C519.538 594.258 516.402 594.378 516.04 594.016C515.678 593.654 518.091 592.567 519.176 591.239C520.261 589.911 520.141 588.099 518.814 586.892C517.487 585.684 515.075 584.839 513.025 585.201C510.975 585.563 509.166 587.133 507.477 588.461C505.789 589.669 504.101 590.635 503.377 589.669C502.653 588.703 502.774 585.805 501.568 584.235C500.362 582.665 497.829 582.303 497.829 581.699C497.95 581.095 500.603 580.25 504.101 579.163C507.598 578.076 511.94 576.99 514.834 575.299C517.849 573.609 519.417 571.435 520.02 568.537C520.623 565.759 520.141 562.258 519.055 560.688C517.97 558.997 516.281 559.118 514.472 560.084C512.663 561.05 510.613 562.861 508.683 563.224C506.754 563.586 504.945 562.74 504.945 560.808C504.824 558.876 506.513 555.978 510.493 554.046C514.472 552.114 520.864 551.148 524.844 551.51C528.824 551.873 530.392 553.805 532.201 553.201C534.01 552.718 536.06 549.82 536.905 547.163C537.628 544.506 537.025 542.091 535.457 540.039C533.89 537.986 531.477 536.174 528.945 536.054C526.292 535.933 523.518 537.261 522.07 537.02C520.503 536.778 520.261 534.846 521.106 533.397C522.07 531.827 524.241 530.74 526.895 530.378C529.548 530.016 532.563 530.378 534.854 531.103C537.146 531.706 538.472 532.672 540.04 532.31C541.488 531.948 543.055 530.257 544.744 528.446C546.432 526.635 548.241 524.823 549.568 523.254C550.895 521.805 551.859 520.597 552.342 518.544C552.704 516.491 552.704 513.472 552.463 510.816C552.221 508.159 551.859 505.865 552.704 502.363C553.548 498.861 555.478 494.152 556.442 489.442C557.407 484.733 557.166 479.902 555.357 473.985C553.427 468.068 549.809 461.185 544.865 456.717C539.799 452.249 533.407 450.197 528.583 448.989C523.638 447.781 520.382 447.298 518.332 446.453C516.282 445.608 515.678 444.4 514.231 444.038C512.784 443.676 510.734 444.4 509.407 445.125C508.08 445.849 507.357 446.695 505.789 447.057C504.221 447.419 501.688 447.419 498.312 447.057C494.814 446.695 490.472 446.091 487.698 446.453C484.804 446.815 483.598 448.264 482.633 450.076C481.668 451.887 481.186 454.302 480.583 456.597C479.98 458.891 479.136 461.306 477.93 462.755C476.724 464.204 475.035 464.566 473.347 464.808C471.658 465.049 470.09 465.049 468.643 464.325C467.196 463.6 465.99 462.031 464.784 460.823C463.578 459.736 462.372 459.132 460.925 458.77C459.477 458.529 457.909 458.529 457.186 458.046C456.462 457.563 456.462 456.597 457.548 454.785C458.633 452.974 460.683 450.559 462.854 448.023C465.025 445.487 467.075 442.951 469.246 441.14C471.296 439.329 473.347 438.121 473.95 436.43C474.553 434.74 473.708 432.566 472.502 429.547C471.296 426.649 469.849 422.906 468.523 419.283C467.316 415.66 466.231 412.038 464.904 409.381C463.457 406.725 461.769 405.155 459.719 404.31C457.668 403.343 455.497 403.102 453.688 401.774C451.879 400.445 450.432 398.151 448.261 396.823C446.09 395.494 443.316 395.011 441.146 393.321C438.975 391.63 437.527 388.491 435.598 387.404C433.668 386.196 431.377 387.042 427.879 387.645C424.382 388.249 419.799 388.853 415.819 388.37C411.839 387.887 408.583 386.438 408.341 384.989C407.98 383.54 410.633 382.211 414.01 382.09C417.387 382.09 421.487 383.298 425.105 383.298C428.723 383.298 431.98 381.849 434.874 382.09C437.769 382.332 440.301 384.264 442.352 385.713C444.402 387.162 446.09 388.249 448.261 389.215C450.432 390.181 453.085 391.147 455.497 392.234C457.909 393.321 460.08 394.408 460.442 393.321C460.804 392.234 459.236 388.853 456.342 384.626C453.447 380.4 449.467 375.328 445.487 370.739C441.628 366.03 437.889 361.804 437.045 358.543C436.201 355.283 438.01 353.23 439.337 351.419C440.663 349.607 441.387 348.158 440.422 346.709C439.457 345.26 436.683 343.932 434.03 340.43C431.377 336.928 428.723 331.373 426.673 326.543C424.623 321.713 423.176 317.607 421.005 315.071C418.834 312.535 415.819 311.569 411.718 310.241C407.618 308.913 402.311 307.222 397.608 306.135C392.904 304.928 388.683 304.324 385.547 304.445C382.412 304.445 380.241 305.29 379.155 303.841C377.949 302.513 377.829 299.011 376.864 296.837C375.899 294.664 374.211 293.698 373.246 291.282C372.281 288.867 371.919 285.003 370.713 280.777C369.507 276.671 367.216 272.203 365.286 268.701C363.356 265.199 361.668 262.663 360.462 260.128C359.256 257.471 358.532 254.814 358.05 252.761C357.567 250.709 357.326 249.38 357.326 247.69C357.326 245.999 357.326 244.067 356.723 240.807C356 237.546 354.552 233.078 353.708 228.61C352.864 224.142 352.502 219.916 350.452 217.622C348.402 215.327 344.663 215.206 341.045 213.395C337.547 211.584 334.291 208.203 331.999 204.701C329.708 201.078 328.381 197.335 327.296 194.557C326.21 191.659 325.487 189.848 323.798 189.123C322.11 188.399 319.336 188.761 316.321 188.52C313.306 188.278 310.05 187.312 307.396 186.467C304.743 185.621 302.572 184.897 300.281 182.844C297.989 180.791 295.457 177.531 292.803 176.323C290.15 175.116 287.256 175.84 285.326 177.772C283.396 179.704 282.311 182.844 280.864 184.776C279.296 186.708 277.366 187.433 274.954 187.795C272.542 188.157 269.647 188.399 267.115 188.399C264.703 188.399 262.652 188.278 260.482 187.674C258.431 187.07 256.26 185.984 253.728 185.621C251.316 185.259 248.542 185.621 246.492 185.621C244.441 185.621 242.994 185.38 240.823 183.81C238.652 182.24 235.637 179.221 234.552 177.531C233.466 175.719 234.19 175.116 235.999 175.719C237.688 176.323 240.461 178.255 242.753 178.738C245.044 179.221 246.974 178.376 249.024 178.738C251.075 179.101 253.366 180.791 255.537 181.516C257.708 182.361 259.879 182.361 262.291 181.033C264.703 179.825 267.477 177.289 270.009 174.391C272.542 171.614 274.833 168.474 277.366 166.904C279.778 165.214 282.431 165.093 284.723 165.093C286.894 165.093 288.703 165.214 290.632 164.489C292.562 163.765 294.733 162.316 296.06 160.746C297.386 159.055 297.869 157.365 297.145 155.433C296.421 153.621 294.371 151.568 292.08 151.206C289.668 150.723 287.014 151.81 286.532 150.965C286.049 150.119 287.979 147.342 287.497 145.772C287.135 144.082 284.602 143.598 281.949 144.082C279.416 144.565 276.884 146.014 273.869 147.463C270.854 148.912 267.356 150.24 266.271 149.636C265.185 149.032 266.632 146.497 268.321 144.082C270.009 141.666 272.06 139.493 274.592 138.406C277.246 137.319 280.502 137.319 283.396 137.44C286.291 137.561 288.823 137.923 291.597 136.474C294.371 135.025 297.386 131.764 299.919 129.229C302.452 126.693 304.381 125.002 305.225 123.07C305.949 121.138 305.467 118.964 305.346 117.153C305.105 115.342 305.225 113.893 305.949 112.444C306.673 110.995 307.999 109.425 309.567 107.734C311.014 106.044 312.703 104.111 313.547 100.851C314.391 97.5907 314.633 93.1227 315.718 90.7076C316.803 88.1718 318.974 87.6887 320.422 86.1189C321.869 84.5491 322.592 81.8925 322.592 78.9943C322.592 76.0962 321.869 72.8358 321.869 70.2999C321.869 67.7641 322.592 65.9527 324.281 64.1414C325.969 62.2093 328.623 60.2773 330.552 57.1376C332.482 53.998 333.809 49.6508 333.809 45.1828C333.929 40.7149 332.844 35.8846 330.914 32.3827C328.984 28.7601 326.09 26.345 323.919 25.0167C321.628 23.6884 319.939 23.3261 318.733 24.4129C317.527 25.4997 316.683 27.9148 315.477 28.5186C314.271 29.2431 312.823 28.1563 311.859 27.0695C310.894 25.9827 310.291 25.0167 309.447 25.0167C308.482 25.0167 307.155 26.1035 304.864 27.0695C302.572 28.1563 299.436 29.1224 296.06 29.4846C292.683 29.8469 289.185 29.4846 286.05 28.6393C283.034 27.794 280.502 26.4657 277.969 26.828C275.436 27.1903 272.904 29.2431 270.733 30.6922C268.562 32.0205 266.753 32.745 263.858 31.4167C260.964 30.0884 256.984 26.828 253.848 26.345C250.713 25.862 248.542 28.0355 246.974 29.7261C245.286 31.4167 244.321 32.6243 242.632 32.745C240.944 32.8658 238.773 32.262 237.326 32.3827C235.758 32.6243 234.914 33.711 234.069 35.0394C233.105 36.2469 232.019 37.696 230.451 38.2997C228.763 38.9035 226.471 38.662 224.904 39.2658C223.336 39.8696 222.612 41.1979 221.647 42.8885C220.682 44.579 219.356 46.5111 217.064 47.5979C214.652 48.564 211.275 48.564 208.743 48.6847C206.21 48.8055 204.642 49.047 205.125 47.8394C205.486 46.6319 208.019 43.9753 210.431 41.8017C212.964 39.6281 215.617 37.9375 215.255 36.6092C214.893 35.2809 211.637 34.3148 211.155 32.9865C210.672 31.6582 212.964 29.8469 216.22 29.2431C219.476 28.6393 223.577 29.1223 226.833 27.0695C230.09 25.0167 232.622 20.428 232.863 18.0128C233.105 15.5977 230.934 15.5977 228.522 15.96C226.11 16.3223 223.215 17.2883 218.873 17.6506C214.532 18.0128 208.743 17.6506 205.848 16.443C202.954 15.2355 202.833 12.9411 205.486 11.8543C208.26 10.6468 213.808 10.6468 217.064 9.80148C220.321 8.95619 221.406 7.38637 223.698 4.36748C225.989 1.34859 229.607 -2.99859 232.863 -5.89672C236.12 -8.79485 239.014 -10.1232 241.306 -11.693C243.477 -13.2628 244.924 -15.0741 246.974 -17.127C249.024 -19.1798 251.436 -21.4742 254.21 -23.8893C256.864 -26.3044 259.758 -28.7195 262.049 -31.0139C264.462 -33.3082 266.271 -35.4818 267.115 -37.5347C267.959 -39.5875 267.597 -41.5196 266.874 -42.6064C266.15 -43.8139 265.185 -44.1762 265.065 -45.9875C265.065 -47.7989 265.909 -51.0593 266.391 -53.4744C266.753 -55.8895 266.753 -57.3385 264.462 -58.3046C262.291 -59.2706 257.949 -59.8744 255.054 -59.8744C252.16 -59.8744 250.833 -59.5121 250.472 -58.3046C250.11 -57.097 250.592 -55.2857 249.748 -54.1989C248.904 -53.1121 246.853 -52.7498 245.286 -53.2329C243.597 -53.7159 242.512 -54.9234 240.461 -55.5272C238.411 -56.0102 235.637 -55.8895 234.19 -54.8027C232.743 -53.7159 232.622 -51.9045 231.416 -50.5762C230.21 -49.3687 227.919 -48.6441 225.868 -49.0064C223.818 -49.3687 222.009 -50.5762 220.2 -51.3008C218.391 -52.0253 216.461 -52.2668 214.773 -51.663C213.084 -51.0593 211.637 -49.6102 209.587 -48.5234C207.537 -47.5574 205.125 -46.9536 203.316 -45.746C201.507 -44.4177 200.421 -42.3649 199.818 -42.7271C199.215 -42.9686 198.974 -45.6253 198.371 -47.3158C197.647 -49.0064 196.441 -49.6102 195.235 -49.9725C194.029 -50.3347 192.944 -50.3347 191.858 -49.1272C190.773 -47.9196 189.687 -45.3838 188.964 -45.0215C188.24 -44.6592 187.999 -46.4706 187.758 -47.9196C187.517 -49.2479 187.155 -50.214 186.311 -50.5762C185.466 -50.9385 184.019 -50.697 183.295 -50.0932C182.572 -49.4894 182.451 -48.2819 182.089 -48.5234C181.728 -48.7649 181.245 -50.214 180.522 -51.4215C179.798 -52.6291 178.833 -53.4744 177.506 -53.9574C176.18 -54.4404 174.371 -54.6819 173.044 -54.3196C171.838 -53.9574 170.994 -52.9913 170.632 -51.9045C170.27 -50.697 170.27 -49.3687 169.667 -48.2819C169.064 -47.1951 167.979 -46.4706 167.376 -45.5045C166.773 -44.5385 166.893 -43.4517 167.376 -42.1234C167.858 -40.795 168.702 -39.4668 168.823 -38.0177C168.944 -36.5686 168.341 -35.1195 167.496 -34.395C166.652 -33.6705 165.808 -33.7912 165.205 -32.4629C164.722 -31.2554 164.602 -28.7195 164.722 -26.7874C164.843 -24.8553 165.325 -23.6478 167.014 -22.561C168.702 -21.4742 171.838 -20.6289 172.562 -20.2666C173.285 -19.7836 171.717 -19.7836 169.185 -19.6628C166.652 -19.5421 163.034 -19.4213 160.019 -19.4213C157.004 -19.4213 154.592 -19.4213 153.868 -18.6968C153.145 -17.9723 153.989 -16.644 155.315 -15.3157C156.642 -13.9873 158.451 -12.7798 159.054 -11.0892C159.657 -9.39864 159.175 -7.22505 158.21 -6.01749C157.245 -4.80994 155.918 -4.68917 154.592 -4.56841C153.265 -4.44765 152.059 -4.44766 150.974 -4.44766C149.768 -4.44766 148.682 -4.32692 148.441 -3.84389C148.2 -3.24012 148.803 -2.27406 149.888 -0.824997C150.974 0.503311 152.542 2.19388 154.712 3.88446C156.883 5.45428 159.778 7.14485 161.587 8.83543C163.396 10.6468 164.361 12.5789 163.275 12.9411C162.19 13.1826 159.054 11.7336 157.124 11.3713C155.195 11.009 154.351 11.8543 153.748 12.5788C153.145 13.4241 152.783 14.1487 151.939 14.8732C151.215 15.477 150.129 16.0808 148.923 15.3562C147.838 14.7525 146.753 12.8204 145.305 12.0958C143.858 11.2505 142.29 11.4921 141.446 12.0958C140.602 12.6996 140.602 13.5449 140.481 14.3902C140.361 15.2355 140.119 15.96 139.034 16.0807C137.949 16.2015 136.019 15.7185 134.692 16.0807C133.366 16.443 132.521 17.6506 132.28 19.0997C132.039 20.5487 132.28 22.1185 132.883 23.9299C133.486 25.8619 134.33 28.0355 135.175 29.2431C136.019 30.4506 136.863 30.8129 136.501 31.1752C136.139 31.5374 134.451 32.0205 133.607 33.1073C132.763 34.1941 132.763 35.8846 133.607 37.213C134.451 38.662 136.019 39.7488 137.949 40.4733C139.999 41.3186 142.411 41.8017 142.773 42.4055C143.134 43.0092 141.205 43.7337 139.155 43.7337C137.104 43.7337 134.692 43.13 133.124 43.13C131.557 43.13 130.712 43.8545 130.351 45.4243C129.989 46.9942 130.23 49.53 130.712 52.3074C131.195 55.0848 132.039 58.2244 133.124 59.6735C134.21 61.0018 135.536 60.6395 137.346 60.0357C139.155 59.432 141.446 58.5867 143.496 58.5867C145.547 58.5867 147.476 59.432 147.959 60.2773C148.441 61.1225 147.597 62.0886 146.27 63.0546C144.823 64.0207 142.893 64.9867 142.652 66.1943C142.411 67.2811 143.979 68.6094 145.547 69.9377C147.114 71.266 148.562 72.5943 147.838 73.3188C147.235 74.0434 144.34 74.1641 142.893 75.1302C141.325 76.0962 141.084 77.9075 142.652 79.5981C144.22 81.2887 147.476 82.9793 147.959 83.8246C148.441 84.6698 146.27 84.6698 144.22 84.5491C142.17 84.4283 140.361 84.0661 138.552 84.4283C136.742 84.7906 134.692 85.6359 133.848 86.8434C133.004 87.9302 133.245 89.2586 134.451 90.3454C135.657 91.4321 137.707 92.2774 138.672 93.3642C139.637 94.3303 139.637 95.5378 138.552 95.7793C137.587 96.0209 135.536 95.1756 133.969 94.9341C132.401 94.6925 131.195 95.0548 130.109 96.8661C129.024 98.6775 128.18 101.817 128.3 103.628C128.421 105.44 129.506 105.681 130.712 106.044C131.918 106.406 133.245 106.889 133.607 107.493C133.969 108.096 133.245 108.821 132.16 109.425C131.074 110.028 129.627 110.512 129.386 111.236C129.144 111.961 130.351 112.806 130.954 113.893C131.557 114.859 131.677 116.066 130.833 116.549C129.989 117.032 128.421 116.912 126.732 116.308C125.165 115.704 123.717 114.496 122.873 114.134C122.029 113.893 121.908 114.496 121.426 115.221C120.943 115.946 120.22 116.67 118.29 117.032C116.361 117.274 113.225 117.153 112.019 118.24C110.692 119.327 111.175 121.742 112.501 123.191C113.828 124.64 115.999 125.002 118.17 126.089C120.34 127.176 122.632 128.866 125.044 130.315C127.456 131.764 129.989 133.093 132.28 134.421C134.572 135.749 136.381 136.957 137.949 137.44C139.516 137.923 140.722 137.561 142.773 135.749C144.823 133.938 147.838 130.436 151.215 126.934C154.712 123.312 158.692 119.568 161.346 117.274C163.999 114.859 165.446 113.893 165.567 114.617C165.808 115.342 164.722 117.757 164.843 119.327C164.964 120.896 166.17 121.5 167.617 121.863C169.064 122.225 170.873 122.225 170.511 122.829C170.15 123.432 167.858 124.64 165.567 125.364C163.396 126.21 161.346 126.693 159.898 127.055C158.451 127.417 157.727 127.78 156.28 129.47C154.833 131.161 152.903 134.18 151.456 136.595C150.009 139.131 149.285 141.063 149.768 142.149C150.25 143.236 152.18 143.357 154.833 143.236C157.486 143.236 160.984 142.995 163.396 142.391C165.808 141.787 167.135 140.58 167.496 140.942C167.858 141.304 167.255 143.357 165.687 144.927C164.119 146.497 161.707 147.583 158.934 147.946C156.039 148.308 152.783 147.946 150.371 148.912C147.959 149.878 146.511 152.051 145.426 154.225C144.341 156.399 143.496 158.572 143.376 161.108C143.134 163.644 143.617 166.663 143.979 169.199C144.341 171.855 144.702 174.029 144.461 176.082C144.22 178.135 143.496 180.067 142.411 182.24C141.325 184.414 139.878 186.708 139.034 188.399C138.19 190.089 137.828 191.176 137.828 193.108C137.949 195.04 138.552 197.818 138.913 200.354C139.275 202.889 139.396 205.305 139.999 206.995C140.602 208.686 141.567 209.652 141.687 211.101C141.808 212.671 141.084 214.844 139.878 217.863C138.672 220.882 136.863 224.988 136.019 226.92C135.175 228.852 135.416 228.731 135.416 230.301C135.416 231.871 135.295 235.01 134.33 237.425C133.366 239.841 131.677 241.29 131.074 243.343C130.471 245.395 130.954 247.931 131.436 249.743C131.918 251.554 132.28 252.641 133.727 253.124C135.295 253.486 137.949 253.244 140.24 252.641C142.531 252.037 144.582 250.95 145.667 249.863C146.753 248.776 146.994 247.81 146.511 246.361C146.029 244.912 144.823 243.222 144.702 240.686C144.461 238.15 145.305 234.89 146.15 231.508C146.994 228.127 148.079 224.625 148.803 221.969C149.526 219.312 150.129 217.259 151.094 215.689C152.059 214.12 153.627 212.791 154.833 211.584C156.039 210.376 156.763 209.048 156.763 207.357C156.763 205.667 155.798 203.493 154.712 201.199C153.506 198.904 152.18 196.61 151.335 194.316C150.612 192.021 150.491 189.727 150.974 188.64C151.456 187.433 152.662 187.433 154.351 186.104C156.039 184.776 158.21 181.999 160.863 178.98C163.516 175.84 166.411 172.218 166.773 172.701C167.135 173.184 164.843 177.652 163.034 180.912C161.225 184.172 159.657 186.225 159.054 189.123C158.451 192.021 158.572 195.644 159.054 198.301C159.657 200.957 160.501 202.406 162.552 203.131C164.602 203.855 167.617 203.735 170.15 202.769C172.682 201.803 174.733 199.991 176.059 197.818C177.386 195.644 177.989 193.108 178.109 189.848C178.23 186.587 177.989 182.723 178.592 179.946C179.195 177.168 180.642 175.599 181.969 175.478C183.295 175.357 184.622 176.685 184.501 178.738C184.501 180.67 183.175 183.327 183.778 185.018C184.381 186.708 187.034 187.674 189.687 189.123C192.461 190.572 195.356 192.625 196.2 193.833C197.165 195.161 196.2 195.644 193.667 195.644C191.135 195.523 187.155 194.799 184.743 195.886C182.331 197.093 181.486 200.233 181.125 203.131C180.763 206.029 180.763 208.686 179.919 210.497C179.074 212.308 177.506 213.395 177.748 215.448C177.989 217.501 180.039 220.641 182.692 222.09C185.346 223.539 188.481 223.418 190.049 224.746C191.617 226.074 191.738 228.731 191.979 230.905C192.22 233.078 192.582 234.527 192.702 235.614C192.702 236.701 192.341 237.184 191.255 237.667C190.17 238.15 188.361 238.512 186.913 240.082C185.466 241.652 184.381 244.55 183.295 247.69C182.21 250.829 181.004 254.452 179.557 257.712C178.109 260.973 176.421 263.992 174.974 266.286C173.647 268.58 172.562 270.029 172.079 271.599C171.597 273.169 171.476 274.739 171.114 275.946C170.753 277.275 170.029 278.241 168.944 278.362C167.738 278.482 166.17 277.879 165.084 278.603C163.999 279.328 163.516 281.38 163.878 284.641C164.24 287.78 165.567 292.128 166.893 295.026C168.22 297.924 169.547 299.494 170.753 301.305C172.079 303.116 173.285 305.29 174.371 307.705C175.336 310.12 176.18 312.777 177.627 313.984C179.074 315.313 181.125 315.313 182.331 314.347C183.416 313.501 183.657 311.69 182.692 309.758C181.728 307.947 179.677 305.894 178.712 303.72C177.748 301.426 177.748 298.89 178.351 296.958C179.074 295.026 180.401 293.818 181.848 293.939C183.295 294.06 184.622 295.388 186.19 296.716C187.758 298.045 189.326 299.252 191.135 300.218C192.823 301.184 194.753 301.909 196.682 303.358C198.612 304.807 200.662 307.101 202.23 308.792C203.798 310.483 205.004 311.569 205.969 311.207C206.934 310.845 207.778 309.154 208.502 306.981C209.225 304.807 209.708 302.15 209.225 300.098C208.743 298.045 207.175 296.596 206.572 294.784C205.969 292.973 206.21 290.558 206.934 289.833C207.778 289.109 208.984 289.833 210.552 290.92C211.999 292.007 213.687 293.335 215.014 295.026C216.341 296.716 217.306 298.648 219.597 299.856C221.889 300.943 225.507 301.305 228.884 300.701C232.26 300.098 235.396 298.648 236.482 296.716C237.567 294.784 236.723 292.49 237.929 291.162C239.014 289.954 242.029 289.833 244.441 289.592C246.853 289.35 248.662 289.109 249.627 288.022C250.592 286.935 250.954 285.124 251.195 283.675C251.557 282.226 251.919 281.018 252.763 280.414C253.728 279.811 255.175 279.811 259.034 279.69C262.894 279.569 269.165 279.328 272.663 279.569C276.16 279.811 276.884 280.656 275.798 281.38C274.833 282.105 272.18 282.83 270.009 283.554C267.838 284.279 266.271 285.124 264.944 285.969C263.617 286.814 262.652 287.66 261.446 288.626C260.24 289.592 258.793 290.679 257.949 292.248C257.105 293.818 257.105 295.871 256.622 297.924C256.26 299.856 255.537 301.788 254.572 303.599C253.607 305.411 252.281 307.222 251.557 309.033C250.833 310.845 250.713 312.535 249.989 314.83C249.386 317.124 248.18 319.901 247.818 321.834C247.456 323.766 247.818 324.852 248.904 326.301C249.989 327.63 251.678 329.32 253.245 330.649C254.693 331.977 256.019 333.064 257.346 335.117C258.673 337.29 259.999 340.43 260.843 343.086C261.808 345.743 262.291 347.675 263.376 349.004C264.462 350.332 266.271 351.056 267.356 349.849C268.441 348.641 268.924 345.622 269.647 344.777C270.371 343.932 271.215 345.139 271.577 346.83C271.939 348.52 271.818 350.815 270.854 352.505C269.889 354.317 267.959 355.524 267.235 356.611C266.512 357.698 266.994 358.543 267.838 359.871C268.683 361.2 269.768 362.89 270.974 363.736C272.18 364.581 273.386 364.46 274.713 363.494C276.039 362.528 277.607 360.717 278.693 358.543C279.778 356.37 280.381 353.954 281.105 353.592C281.708 353.23 282.431 355.041 283.276 356.007C284.12 356.973 284.964 357.094 285.929 356.007C286.894 354.921 288.1 352.626 289.185 352.022C290.271 351.419 291.356 352.626 292.08 353.834C292.803 355.041 293.045 356.49 292.321 357.698C291.597 358.905 289.788 360.113 288.703 361.321C287.617 362.528 287.256 363.856 287.617 365.064C287.979 366.271 289.185 367.358 289.909 368.687C290.632 370.136 290.994 371.947 289.788 372.551C288.582 373.155 285.808 372.672 284.24 372.43C282.673 372.189 282.19 372.189 281.828 372.913C281.467 373.638 281.105 374.966 280.984 376.898C280.743 378.83 280.743 381.366 280.743 383.66C280.743 385.955 280.622 388.128 281.467 389.577C282.311 391.147 283.999 392.113 284.844 393.2C285.688 394.287 285.808 395.374 285.205 395.857C284.602 396.46 283.396 396.46 282.673 397.185C282.07 398.03 282.07 399.6 281.708 401.17C281.346 402.74 280.743 404.31 279.899 405.638C279.055 406.966 278.21 408.053 278.331 409.381C278.452 410.71 279.658 412.4 281.346 414.211C283.034 415.902 285.085 417.713 286.894 419.645C288.703 421.578 290.029 423.51 291.597 424.959C293.045 426.408 294.612 427.132 296.06 427.615C297.507 428.098 299.075 428.219 300.04 429.185C301.004 430.151 301.487 431.842 300.522 432.808C299.557 433.774 297.266 434.015 295.215 433.895C293.165 433.653 291.477 433.049 289.668 431.238C287.859 429.306 285.808 426.166 283.879 424.355C282.07 422.423 280.381 421.819 278.693 422.302C277.125 422.785 275.557 424.234 275.436 426.408C275.316 428.581 276.763 431.238 277.848 433.291C278.934 435.344 279.899 436.672 279.658 437.396C279.537 438 278.331 438 276.522 436.913C274.713 435.827 272.301 433.774 270.612 432.445C268.924 431.117 268.08 430.393 265.788 430.634C263.497 430.876 259.879 432.083 257.346 432.929C254.813 433.774 253.487 434.378 251.678 434.498C249.869 434.619 247.818 434.257 245.406 434.74C243.115 435.102 240.582 436.189 237.446 438.242C234.311 440.295 230.331 443.313 226.471 445.97C222.492 448.627 218.512 450.8 216.1 452.853C213.688 454.906 212.723 456.959 210.793 459.374C208.863 461.789 206.089 464.808 202.471 467.827C198.853 470.846 194.391 473.985 191.496 476.763C188.481 479.54 186.913 481.834 187.275 483.163C187.637 484.491 189.929 484.733 192.944 484.612C195.959 484.37 199.577 483.646 201.868 481.955C204.16 480.265 205.125 477.608 207.537 475.555C209.949 473.502 213.687 472.053 216.944 471.57C220.2 471.087 222.974 471.57 223.939 472.899C225.024 474.106 224.301 476.159 223.577 477.97C222.733 479.782 221.647 481.351 222.612 482.68C223.456 484.008 226.351 485.095 227.919 486.544C229.487 487.993 229.848 489.925 228.642 491.857C227.436 493.91 224.904 495.963 223.818 497.533C222.853 499.102 223.456 500.189 225.024 501.397C226.592 502.604 229.125 504.174 229.969 506.106C230.813 508.038 229.969 510.453 228.16 514.438C226.351 518.423 223.456 523.857 219.597 527.722C215.738 531.586 210.914 533.88 207.778 536.295C204.522 538.59 202.954 540.884 200.783 541.971C198.491 542.937 195.597 542.695 192.944 543.903C190.29 545.11 187.999 547.888 186.311 549.699C184.622 551.631 183.416 552.597 181.125 552.718C178.833 552.718 175.456 551.873 173.647 552.476C171.717 553.08 171.356 555.375 169.908 556.944C168.461 558.635 166.049 559.842 164.24 561.292C162.431 562.861 161.104 564.673 160.863 566.122C160.501 567.45 161.225 568.295 162.913 568.778C164.602 569.141 167.496 569.141 168.944 570.348C170.391 571.435 170.391 573.609 169.305 575.299C168.22 576.99 166.17 577.956 164.843 579.405C163.516 580.733 163.034 582.424 165.687 582.665C168.461 582.907 174.371 581.578 177.868 581.458C181.245 581.337 182.089 582.424 180.763 583.51C179.316 584.718 175.697 585.926 174.25 587.495C172.803 589.065 173.647 590.997 175.456 592.205C177.265 593.412 180.16 593.895 181.848 593.412C183.537 592.809 184.26 591.118 185.949 590.031C187.637 588.945 190.411 588.462 192.461 587.254C194.512 586.046 195.838 584.356 197.285 583.028C198.733 581.699 200.18 580.854 202.592 580.371C205.004 579.888 208.381 579.767 210.431 578.68C212.481 577.473 213.326 575.299 213.687 575.903C214.049 576.507 213.929 579.888 215.376 581.82C216.823 583.752 219.718 584.235 221.889 585.443C224.059 586.65 225.386 588.582 224.421 589.548C223.456 590.635 220.079 590.756 218.753 592.205C217.426 593.654 218.029 596.311 219.959 597.639C222.009 598.967 225.265 599.088 229.245 597.639C233.105 596.069 237.567 592.929 241.064 592.809C244.562 592.688 247.095 595.707 248.662 597.76C250.351 599.812 251.075 601.141 252.401 602.348C253.728 603.556 255.657 604.884 257.828 606.575C260.12 608.265 262.652 610.318 265.547 611.284C268.441 612.371 271.698 612.371 274.351 611.888C276.884 611.405 278.813 610.439 280.261 608.628C281.708 606.816 282.914 604.401 284.24 602.107C285.688 599.933 287.256 598.001 289.185 596.794C291.115 595.586 293.045 595.224 295.577 594.862C298.11 594.499 301.246 594.258 306.07 590.393C310.894 586.529 317.286 579.163 320.904 575.782C324.522 572.401 325.246 573.005 325.004 574.575C324.643 576.144 323.195 578.801 320.542 582.424C316.683 584.477 312.824 589.186 308.844 593.292ZM407.98 665.866C407.738 664.417 406.05 663.088 403.276 662.002C400.382 660.794 396.522 659.828 393.748 659.707C390.975 659.586 389.286 660.552 386.633 661.518C383.98 662.605 380.361 663.813 378.673 665.141C376.985 666.59 377.105 668.16 378.552 669.126C380 670.092 382.894 670.334 385.186 671.058C387.477 671.783 389.407 672.87 390.854 674.198C392.422 675.526 393.628 676.975 395.678 677.337C397.728 677.7 400.743 677.096 402.552 675.768C404.362 674.439 404.965 672.628 405.929 670.817C406.774 669.126 408.1 667.435 407.98 665.866ZM225.989 435.102C226.592 433.532 226.954 431.6 225.748 430.876C224.542 430.151 221.647 430.513 219.597 429.668C217.547 428.823 216.22 426.77 214.049 424.838C211.878 422.906 208.743 421.094 206.331 420.732C203.919 420.249 202.23 421.215 200.783 422.785C199.336 424.476 198.009 426.77 195.838 428.098C193.667 429.427 190.773 429.668 189.808 430.996C188.843 432.204 189.808 434.498 191.376 435.827C192.944 437.155 194.994 437.517 196.803 438.846C198.612 440.174 199.939 442.468 200.662 444.159C201.386 445.849 201.386 446.936 202.713 447.661C204.039 448.385 206.692 448.627 209.105 447.902C211.517 447.298 213.567 445.608 215.979 444.038C218.391 442.468 221.165 440.778 222.974 439.329C224.662 437.88 225.507 436.672 225.989 435.102ZM160.14 212.671C158.934 213.154 157.848 214.12 156.401 215.327C154.954 216.535 153.145 218.105 152.662 219.674C152.18 221.244 152.903 222.693 153.506 224.384C154.109 226.195 154.351 228.248 154.712 230.663C155.074 233.078 155.436 235.976 157.124 237.667C158.813 239.358 161.949 239.72 164.481 239.599C166.893 239.478 168.823 238.995 169.547 236.58C170.27 234.165 170.029 229.818 169.426 226.074C168.944 222.331 168.22 219.191 167.135 217.018C166.17 214.723 164.964 213.395 163.758 212.671C162.552 211.946 161.346 212.067 160.14 212.671ZM115.637 199.267C114.793 198.059 113.345 196.127 111.175 195.161C109.004 194.195 105.989 194.195 102.853 195.403C99.5966 196.61 96.2197 199.025 94.2901 201.923C92.3604 204.822 92.1192 208.203 91.6368 211.222C91.275 214.24 90.672 216.776 91.1544 217.984C91.6368 219.191 93.2046 219.071 95.0137 217.38C96.8227 215.69 98.873 212.55 100.682 211.463C102.491 210.376 104.059 211.342 104.903 212.671C105.747 213.999 105.989 215.689 105.386 217.742C104.783 219.795 103.577 222.09 103.094 224.022C102.612 225.954 102.974 227.282 104.541 227.403C105.989 227.403 108.642 226.195 111.778 224.746C114.913 223.418 118.411 221.969 120.22 220.157C122.029 218.346 122.029 216.173 121.185 213.033C120.582 210.859 119.617 208.323 118.652 206.15C119.255 206.995 119.858 207.599 120.582 207.84C122.632 208.806 124.803 207.116 127.094 203.372C129.506 199.629 132.039 193.712 133.607 188.399C135.295 183.086 136.019 178.376 136.019 174.995C136.139 171.734 135.657 169.802 134.089 170.768C132.521 171.734 129.989 175.719 127.215 179.342C124.32 183.086 121.064 186.708 119.014 189.969C116.964 193.35 115.999 196.489 116.361 199.871C116.361 200.112 116.481 200.354 116.481 200.595C116.24 200.233 115.999 199.75 115.637 199.267ZM112.26 171.734C109.848 173.184 106.953 177.168 105.747 180.55C104.541 183.931 105.265 186.708 107.436 186.587C109.607 186.467 113.466 183.569 115.516 180.67C117.567 177.772 118.049 175.116 117.325 173.184C116.602 171.251 114.672 170.165 112.26 171.734ZM136.26 152.414C135.295 153.621 134.813 155.916 133.245 156.399C131.677 156.882 129.024 155.553 126.009 156.399C122.994 157.244 119.617 160.142 115.878 161.953C112.139 163.765 108.039 164.368 105.747 163.04C103.456 161.712 102.853 158.331 103.938 156.64C104.903 154.949 107.436 154.949 109.607 153.621C111.778 152.293 113.707 149.516 115.275 147.463C116.964 145.41 118.29 144.202 116.843 143.599C115.396 142.995 111.175 143.115 108.521 141.787C105.747 140.459 104.541 137.561 105.386 134.542C106.23 131.523 109.124 128.263 111.657 127.297C114.069 126.451 116.119 127.9 117.446 129.712C118.773 131.644 119.376 133.938 121.788 135.387C124.2 136.957 128.3 137.681 131.315 139.251C134.451 140.942 136.501 143.357 137.828 145.41C139.034 147.463 139.516 148.912 139.034 149.757C138.552 150.844 137.225 151.206 136.26 152.414ZM124.2 63.4169C121.305 61.1225 118.531 57.7414 117.446 53.6357C116.361 49.53 117.084 44.6998 115.637 40.4733C114.19 36.2469 110.451 32.745 107.315 30.8129C104.18 29.0016 101.526 28.8808 100.441 30.5714C99.3554 32.262 99.7172 35.7639 100.079 38.2997C100.441 40.8356 100.561 42.4055 98.873 42.1639C97.1846 41.9224 93.5665 39.9903 91.6368 39.8696C89.5865 39.8696 89.2247 41.6809 88.1393 44.3375C87.0539 46.8734 85.2448 50.1338 85.0036 53.7565C84.7624 57.3791 85.9684 61.364 88.1393 62.8131C90.1896 64.2622 93.2047 63.0546 95.4961 63.6584C97.7876 64.2622 99.476 66.6773 101.285 69.0924C103.094 71.5075 105.144 73.9226 107.195 75.8547C109.245 77.7868 111.295 79.1151 113.707 79.2358C115.999 79.3566 118.531 78.3906 119.496 79.8396C120.461 81.2887 119.979 85.2736 121.064 86.8434C122.149 88.4133 124.682 87.4472 127.577 84.4283C130.471 81.4095 133.486 76.3377 134.33 73.3188C135.175 70.2999 133.969 69.2131 131.918 68.0056C129.868 66.9188 126.974 65.7112 124.2 63.4169ZM80.0589 135.146C77.6468 134.783 73.7875 135.387 71.2548 136.112C68.7222 136.836 67.5161 137.802 67.1543 139.372C66.7925 140.942 67.2749 143.115 67.9985 144.927C68.8428 146.738 69.9282 148.429 71.496 148.67C73.1845 148.912 75.2347 147.946 77.0438 146.497C78.8528 145.048 80.1795 143.115 81.3855 141.666C82.5916 140.217 83.677 139.131 83.677 137.923C83.677 136.836 82.5916 135.508 80.0589 135.146ZM95.7373 121.017C93.5665 121.017 91.5162 121.983 89.7072 123.312C88.0187 124.64 86.6921 126.21 85.8478 127.9C85.0036 129.591 84.7624 131.523 85.0036 133.093C85.2448 134.663 85.9684 135.87 87.2951 136.112C88.6217 136.353 90.4308 135.508 92.7222 133.817C95.0137 132.127 97.667 129.47 99.2348 127.538C100.923 125.606 101.406 124.398 100.682 123.312C99.9584 122.104 97.9082 121.017 95.7373 121.017ZM111.416 97.7114C109.486 98.7982 108.28 100.368 108.159 102.059C108.039 103.749 108.883 105.561 110.33 106.647C111.657 107.613 113.587 107.855 115.637 106.647C117.687 105.44 119.979 102.904 120.461 100.851C121.064 98.7982 119.979 97.2284 118.049 96.7454C116.119 96.1416 113.345 96.7454 111.416 97.7114ZM103.094 86.6019C101.044 87.4472 98.6318 89.017 98.0288 91.1906C97.3052 93.3642 98.3906 95.9001 100.32 97.9529C102.25 100.006 104.903 101.334 106.592 100.368C108.28 99.402 108.883 96.0208 109.004 93.2435C109.124 90.4661 108.642 88.2925 107.677 87.0849C106.712 85.8774 105.144 85.8774 103.094 86.6019ZM48.9432 89.017C47.2547 88.8963 45.5663 89.8623 44.3603 92.2775C43.0336 94.5718 42.1894 98.3152 41.8276 100.61C41.4658 102.904 41.8276 103.749 43.2748 103.387C44.7221 102.904 47.4959 101.093 49.5462 99.5228C51.5965 97.8322 52.8025 96.3831 53.4055 95.1756C54.0085 93.8472 54.0085 92.7605 53.1643 91.6737C52.1995 90.3454 50.6316 89.1378 48.9432 89.017ZM52.6819 56.7753C50.511 56.8961 49.0638 58.9489 48.4608 62.8131C47.8578 66.6773 47.9784 72.3528 48.3402 76.5792C48.702 80.6849 49.305 83.3415 50.7522 84.9113C52.1995 86.6019 54.3703 87.3265 56.0588 86.6019C57.7472 85.9982 58.9533 83.9453 59.7975 80.3226C60.6417 76.8207 61.2447 71.749 61.3653 68.1264C61.4859 64.5037 61.1241 62.3301 59.4357 60.2773C57.7472 58.4659 54.8528 56.6546 52.6819 56.7753ZM53.8879 47.7187C51.2347 47.8394 48.8226 48.8055 48.4608 50.2545C48.099 51.7036 49.6668 53.6357 51.8377 54.964C54.0085 56.2923 56.6618 57.0168 58.9533 56.6546C61.2447 56.2923 62.9332 54.8432 63.5362 53.3942C64.1392 51.9451 63.4156 50.3753 61.486 49.2885C59.6769 48.3224 56.6618 47.5979 53.8879 47.7187ZM44.3603 38.0582C45.2045 36.3677 47.0135 34.5564 48.4608 33.7111C49.908 32.8658 50.9935 33.228 52.8025 32.745C54.6116 32.262 57.2648 31.1752 59.6769 30.9337C62.089 30.6922 64.3804 31.4167 66.1895 32.3827C67.9985 33.3488 69.3252 34.6771 69.4458 37.3337C69.5664 39.8696 68.4809 43.7337 67.1543 45.9073C65.7071 47.9602 63.898 48.3225 61.9684 47.4772C59.9181 46.6319 57.7472 44.4583 55.697 43.4922C53.6467 42.4055 51.5965 42.4054 49.5462 42.5262C47.4959 42.6469 45.4457 42.7677 44.4809 42.0432C43.3954 41.3186 43.3954 39.7488 44.3603 38.0582ZM108.642 -43.9347C110.813 -45.6253 112.501 -45.9875 114.31 -45.1422C116.119 -44.297 118.17 -42.3649 117.928 -40.1913C117.808 -38.0177 115.516 -35.7233 114.431 -33.7912C113.345 -31.9799 113.587 -30.5308 112.984 -29.0818C112.381 -27.6327 110.933 -26.0629 109.727 -24.4931C108.521 -22.9232 107.556 -21.3534 107.436 -20.3874C107.315 -19.4213 108.159 -19.0591 109.366 -19.4213C110.572 -19.7836 112.019 -20.9911 113.466 -21.4742C114.913 -21.9572 116.361 -21.8364 116.722 -20.5081C117.205 -19.1798 116.602 -16.644 114.793 -15.1949C112.984 -13.8666 109.848 -13.7458 108.28 -13.3836C106.592 -13.0213 106.471 -12.176 105.265 -11.21C104.059 -10.2439 101.647 -9.03638 100.32 -7.94958C98.9936 -6.86278 98.873 -5.89673 99.8378 -5.53446C100.803 -5.1722 103.094 -5.17219 104.541 -5.29295C105.989 -5.29295 106.592 -5.29296 106.592 -4.0854C106.712 -2.87785 106.35 -0.462738 105.144 0.86557C103.938 2.19388 101.768 2.55615 101.285 3.64294C100.803 4.60899 102.009 6.29958 101.044 7.62788C100.2 8.95619 97.3052 10.043 95.0137 9.43921C92.7222 8.83543 91.1544 6.78259 90.3102 4.48824C89.3453 2.19388 89.1041 -0.100456 88.5011 -0.945747C87.8981 -1.79104 86.8127 -1.30803 86.2097 0.141037C85.6066 1.5901 85.3654 4.0052 86.0891 6.42032C86.8127 8.83543 88.3805 11.3713 88.8629 13.3034C89.3453 15.2355 88.7423 16.443 86.8127 18.3751C84.883 20.3072 81.5061 22.7223 79.094 24.6544C76.682 26.5865 75.1141 28.1563 73.6669 28.3978C72.2197 28.7601 70.7724 27.9148 68.9634 26.345C67.1543 24.6544 64.7422 22.1185 64.2598 20.4279C63.7774 18.7374 65.104 17.7713 66.6719 17.2883C68.2397 16.8053 69.9282 16.8053 71.496 15.7185C73.0639 14.6317 74.6317 12.4581 75.5965 11.1298C76.5614 9.80148 76.8026 9.19769 75.4759 8.47316C74.0287 7.74863 71.0136 7.02409 68.8428 5.9373C66.6719 4.97125 65.3453 3.64296 66.0689 2.67691C66.6719 1.71086 69.2046 0.986336 70.0488 -0.100464C70.893 -1.18726 70.0488 -2.63633 68.4809 -4.20615C66.9131 -5.89673 64.6216 -7.70807 64.7422 -10.2439C64.7422 -12.659 67.1543 -15.7987 68.6016 -17.9723C70.0488 -20.1459 70.4106 -21.5949 71.496 -21.4742C72.4609 -21.4742 74.1493 -19.9044 75.3553 -18.093C76.5614 -16.1609 77.5262 -13.8666 79.4559 -13.1421C81.3855 -12.4175 84.28 -13.1421 85.7272 -14.3496C87.1745 -15.5572 87.2951 -17.0062 86.3303 -19.1798C85.3654 -21.3534 83.3152 -24.2516 82.8328 -26.3044C82.3503 -28.3572 83.4358 -29.8063 85.7272 -30.4101C88.0187 -31.1346 91.5162 -31.1346 94.2901 -31.9799C97.064 -32.8252 99.2348 -34.6365 101.647 -36.9309C103.697 -39.4667 106.471 -42.3649 108.642 -43.9347ZM263.497 -126.048C262.049 -124.72 260.843 -121.943 261.326 -119.165C261.688 -116.388 263.738 -113.852 266.391 -113.248C269.044 -112.765 272.301 -114.456 273.748 -116.388C275.316 -118.32 275.075 -120.614 273.869 -122.426C272.663 -124.237 270.25 -125.565 268.321 -126.411C266.391 -127.135 264.823 -127.377 263.497 -126.048ZM289.547 -107.09C287.256 -107.09 285.447 -106.486 283.879 -105.399C282.311 -104.192 280.984 -102.501 280.984 -100.69C280.984 -98.8784 282.431 -96.8256 285.205 -95.7388C287.859 -94.7727 291.959 -94.652 294.13 -96.4633C296.421 -98.2746 296.783 -102.018 295.698 -104.192C294.612 -106.486 291.839 -107.09 289.547 -107.09ZM301.728 -124.116C298.351 -124.72 292.683 -123.029 289.065 -121.218C285.567 -119.286 284.12 -117.354 284.24 -115.06C284.361 -112.765 285.929 -110.35 289.065 -109.988C292.2 -109.626 296.904 -111.316 300.16 -112.886C303.416 -114.456 305.105 -115.905 305.467 -118.199C305.949 -120.373 305.105 -123.392 301.728 -124.116ZM276.281 -117.112C274.472 -114.818 273.266 -110.592 273.507 -107.814C273.627 -105.037 275.195 -103.709 277.004 -104.795C278.813 -105.761 281.105 -109.022 282.07 -111.92C283.155 -114.818 283.034 -117.233 281.828 -118.441C280.502 -119.528 278.09 -119.407 276.281 -117.112ZM269.647 -76.6594C267.356 -75.8141 265.909 -73.6405 265.547 -71.3462C265.185 -69.0518 265.909 -66.516 268.2 -65.3084C270.492 -64.1008 274.351 -64.3424 276.16 -66.3952C277.969 -68.5688 277.969 -72.6745 276.401 -74.9688C274.833 -77.2632 271.939 -77.6255 269.647 -76.6594ZM244.924 -83.4217C243.838 -82.0934 243.597 -79.4368 244.321 -77.1424C245.044 -74.8481 246.853 -72.7952 249.627 -71.8292C252.401 -70.7424 256.14 -70.6216 257.828 -72.433C259.517 -74.1235 259.155 -77.6255 257.467 -80.0406C255.778 -82.4557 252.884 -83.784 250.351 -84.3878C248.059 -84.8708 246.009 -84.75 244.924 -83.4217ZM282.673 -89.3387C283.034 -87.5274 281.828 -84.75 279.899 -83.1802C277.849 -81.6104 274.954 -81.1274 272.904 -81.7311C270.853 -82.3349 269.647 -84.1462 268.441 -84.5085C267.235 -84.8708 265.909 -83.784 264.341 -83.0594C262.773 -82.4557 260.964 -82.2142 259.999 -84.0255C259.034 -85.8368 259.034 -89.701 258.311 -90.9086C257.587 -92.1161 256.14 -90.667 254.572 -89.4595C253.004 -88.3727 251.316 -87.5274 249.989 -88.8557C248.662 -90.184 247.698 -93.6859 248.542 -97.4293C249.265 -101.173 251.798 -105.037 254.693 -107.09C257.587 -109.143 260.843 -109.263 262.411 -107.452C263.979 -105.641 263.738 -101.897 264.462 -99.3614C265.185 -96.8256 266.753 -95.4973 269.286 -94.652C271.818 -93.8067 275.436 -93.4444 278.09 -92.7199C280.622 -92.3576 282.311 -91.2708 282.673 -89.3387ZM207.657 328.958C205.245 330.045 202.713 331.977 200.542 334.271C198.371 336.566 196.682 339.222 195.959 341.154C195.115 343.087 195.235 344.415 194.512 345.502C193.788 346.709 192.461 347.796 190.893 349.607C189.446 351.419 187.878 353.954 186.552 356.853C185.104 359.751 183.898 363.011 184.743 364.46C185.587 365.909 188.481 365.668 192.702 364.219C196.803 362.649 202.11 359.871 206.813 356.611C211.517 353.351 215.617 349.487 216.944 346.951C218.27 344.294 216.703 342.966 215.497 341.396C214.29 339.826 213.326 338.136 213.205 335.72C213.084 333.426 213.808 330.407 213.084 329.079C212.24 327.63 210.069 327.871 207.657 328.958Z" fill="url(#paint0_linear)"/>
<defs>
<linearGradient id="paint0_linear" x1="-21" y1="-80.5" x2="784" y2="883" gradientUnits="userSpaceOnUse">
<stop stop-color="#EB233D"/>
<stop offset="0.5" stop-color="#5BBE80"/>
<stop offset="1" stop-color="#FFAD1F"/>
</linearGradient>
</defs>
</svg>
