<svg width="41" height="35" viewBox="0 0 41 35" fill="none" xmlns="http://www.w3.org/2000/svg">
<path d="M39.9231 15.3916C40.134 15.6024 40.134 15.8133 40.134 15.8133C40.134 15.8133 40.134 16.0241 39.9231 16.2349L39.0798 17.2892C39.0798 17.5 38.8689 17.5 38.6581 17.5C38.4472 17.5 38.4472 17.5 38.2364 17.2892L35.0737 14.759V33.7349C35.0737 33.9458 34.8629 34.3675 34.652 34.5783C34.4412 34.7892 34.0195 35 33.8087 35H23.6882C23.2665 35 23.0557 34.7892 22.8448 34.5783C22.634 34.3675 22.4231 33.9458 22.4231 33.7349V23.6145H17.5737V33.7349C17.5737 33.9458 17.3629 34.3675 17.152 34.5783C16.9412 34.7892 16.5195 35 16.3087 35H6.39903C5.97734 35 5.7665 34.7892 5.55566 34.5783C5.34481 34.3675 5.13397 33.9458 5.13397 33.7349V14.759L1.97132 17.2892C1.97132 17.2892 1.76048 17.5 1.54963 17.5C1.33879 17.5 1.12795 17.5 1.12795 17.2892L0.284574 16.2349C0.0737305 16.2349 0.0737305 16.0241 0.0737305 15.8133C0.0737305 15.6024 0.0737305 15.6024 0.284574 15.3916L18.4171 0.421687C19.0496 0.210843 19.4713 0 20.1039 0C20.7364 0 21.1581 0.210843 21.5798 0.63253L32.5436 9.48795V5.48193C32.5436 5.27108 32.7545 5.06024 32.9653 5.06024H34.4412C34.652 5.06024 34.8629 5.27108 34.8629 5.48193V11.5964L39.9231 15.3916ZM32.5436 32.4699V12.6506L20.1039 2.53012L7.66409 12.6506V32.4699H15.2545V22.3494C15.2545 21.9277 15.4653 21.7169 15.6761 21.506C15.887 21.2952 16.3087 21.0843 16.5195 21.0843H24.1099C24.3207 21.0843 24.3207 21.0843 24.5316 21.0843C24.7424 21.0843 24.7424 21.2952 24.9532 21.2952C24.9532 21.506 25.1641 21.506 25.1641 21.7169C25.1641 21.9277 25.3749 21.9277 25.3749 22.1386V32.259H32.5436V32.4699Z" fill="#E62641"/>
</svg>
