<svg width="41" height="36" viewBox="0 0 41 36" fill="none" xmlns="http://www.w3.org/2000/svg">
<path d="M36.3388 2.60919C38.8689 4.71762 40.134 7.45858 40.3448 10.6212C40.5556 13.7839 39.5014 16.5248 37.1822 18.8441L22.0014 34.4465C21.5797 34.8682 20.9472 35.2899 20.3147 35.2899C19.6822 35.2899 19.0496 35.0791 18.4171 34.4465L3.23637 18.6333C0.917092 16.5248 -0.137125 13.7839 0.0737187 10.4104C0.284562 7.24774 1.54962 4.50678 4.07974 2.39834C5.55565 1.13328 7.45324 0.28991 9.35083 0.0790663C11.2484 -0.131777 13.146 0.0790662 14.6219 0.711596C16.3087 1.34413 17.5737 2.1875 18.6279 3.45256L20.1038 5.13931L21.5797 3.45256C23.4773 1.34413 26.0075 0.28991 28.7484 0.0790663C31.7002 -0.131777 34.0195 0.711597 36.3388 2.60919ZM35.2846 16.9465C36.9713 15.2598 37.8147 13.1514 37.8147 10.8321C37.6038 8.5128 36.5496 6.40437 34.652 4.29593C33.387 3.24172 31.9111 2.60919 30.2243 2.60919C28.5376 2.60919 27.2725 2.82003 26.2183 3.24172C25.1641 3.6634 24.1099 4.50678 23.4773 5.13931L20.1038 8.72364L16.7303 5.35015C16.0978 4.50678 15.0436 3.87425 13.9894 3.24172C12.9352 2.60919 11.6701 2.60919 9.98336 2.60919C8.29661 2.60919 6.82071 3.24172 5.55565 4.29593C3.65806 6.40437 2.60384 8.5128 2.60384 10.8321C2.60384 13.1514 3.44721 15.2598 4.92312 16.9465L20.1038 32.5489L35.2846 16.9465Z" fill="#E62641"/>
</svg>
