<svg width="35" height="36" viewBox="0 0 35 36" fill="none" xmlns="http://www.w3.org/2000/svg">
<path d="M34.7053 8.737C35.0737 10.5791 35.0737 12.237 34.7053 14.0791C34.1527 15.737 33.4158 17.3949 32.1264 18.6844C30.8369 19.9738 29.3632 20.8949 27.5211 21.2633C25.679 21.8159 24.0211 21.8159 22.179 21.2633L8.91584 34.5265C7.81057 35.4475 6.70531 36.0002 5.23162 36.0002C3.75794 36.0002 2.65268 35.4475 1.54741 34.5265C0.626362 33.4212 0.0737305 32.3159 0.0737305 30.8423C0.0737305 29.3686 0.626362 28.0791 1.54741 27.158L14.8106 13.8949C14.2579 12.0528 14.2579 10.3949 14.8106 8.55279C15.3632 6.71068 16.1 5.237 17.3895 3.94752C18.679 2.65805 20.1527 1.737 21.9948 1.36858C23.8369 0.815944 25.4948 0.815944 27.1527 1.36858C27.8895 1.55279 28.2579 1.92121 28.4421 2.65805C28.6264 3.39489 28.4422 3.94752 27.8895 4.50015L23.4685 8.92121L24.0211 11.8686L26.9685 12.4212L31.3895 8.00015C31.9422 7.44752 32.4948 7.26331 33.2316 7.44752C34.1527 7.63173 34.5211 8.18436 34.7053 8.737ZM30.4685 17.0265C32.4948 15.0002 33.2316 12.6054 32.679 9.84226L27.8895 14.6317L22.179 13.7107L21.2579 8.00015L26.0474 3.21068C25.679 3.21068 25.1264 3.02647 24.7579 3.02647C22.5474 3.02647 20.5211 3.76331 19.0474 5.42121C17.9422 6.52647 17.2053 7.81594 16.8369 9.28963C16.4685 10.9475 16.6527 12.4212 17.0211 13.8949L17.2053 14.4475L3.20531 28.6317C2.65268 29.1844 2.28426 29.9212 2.28426 30.8423C2.28426 31.7633 2.65268 32.3159 3.20531 33.0528C3.75794 33.6054 4.49478 33.9738 5.41584 33.9738C6.33689 33.9738 7.07373 33.6054 7.62636 33.0528L21.8106 18.8686L22.179 19.0528C23.6527 19.6054 25.1264 19.6054 26.6 19.237C28.0737 18.8686 29.3632 18.1317 30.4685 17.0265ZM4.67899 29.737C4.8632 29.5528 5.23163 29.3686 5.41584 29.3686C5.78426 29.3686 5.96847 29.5528 6.15268 29.737C6.33689 29.9212 6.5211 30.2896 6.5211 30.4738C6.5211 30.8423 6.33689 31.0265 6.15268 31.2107C5.96847 31.3949 5.78426 31.5791 5.60005 31.5791C5.23163 31.5791 5.04741 31.3949 4.8632 31.2107C4.67899 31.0265 4.49478 30.8423 4.49478 30.4738C4.49478 30.2896 4.49478 29.9212 4.67899 29.737Z" fill="#E62641"/>
</svg>
