<svg width="36" height="35" viewBox="0 0 36 35" fill="none" xmlns="http://www.w3.org/2000/svg">
<path d="M30.6527 0C31.7579 0 32.8632 0.368421 33.7843 1.28947C34.7053 2.21053 35.0737 3.13158 35.0737 4.42105V24.1316C35.0737 25.2368 34.7053 26.3421 33.7843 27.2632C32.8632 28.1842 31.9422 28.5526 30.6527 28.5526H20.8895L12.4158 35C12.2316 35 12.0474 35 11.8632 35C11.3106 35 11.1264 34.8158 11.1264 34.2632V28.5526H4.49478C3.38952 28.5526 2.28426 28.1842 1.3632 27.2632C0.442151 26.3421 0.0737305 25.4211 0.0737305 24.1316V4.42105C0.0737305 3.31579 0.442151 2.21053 1.3632 1.28947C2.28426 0.368421 3.20531 0 4.49478 0H30.6527ZM32.8632 24.1316V4.42105C32.8632 3.86842 32.679 3.31579 32.1264 2.94737C31.7579 2.57895 31.2053 2.21053 30.6527 2.21053H4.49478C3.94215 2.21053 3.38952 2.39474 3.0211 2.94737C2.46847 3.31579 2.28426 3.86842 2.28426 4.42105V24.1316C2.28426 24.6842 2.46847 25.2368 3.0211 25.6053C3.38952 25.9737 3.94215 26.3421 4.49478 26.3421H13.3369V31.5L19.7843 26.7105L20.3369 26.3421H31.0211C31.5737 26.3421 32.1264 26.1579 32.4948 25.6053C32.679 25.2368 32.8632 24.6842 32.8632 24.1316Z" fill="#E62641"/>
</svg>
