<svg width="44" height="35" viewBox="0 0 44 35" fill="none" xmlns="http://www.w3.org/2000/svg">
<path d="M16.6527 17.5L16.2843 18.7895C16.1 18.9737 15.7316 19.1579 15.3632 19.5263H5.60005V21.7368C5.60005 22.1053 5.41583 22.2895 5.23162 22.4737C5.04741 22.6579 4.67899 22.8421 4.49478 22.8421H3.38952C3.0211 22.8421 2.83689 22.6579 2.65268 22.4737C2.46847 22.2895 2.28426 22.1053 2.28426 21.9211V19.5263C1.73163 19.3421 1.17899 18.9737 0.810573 18.4211C0.257941 17.8684 0.0737305 17.1316 0.0737305 16.5789V12.8947C0.0737305 11.9737 0.257941 11.0526 0.810573 10.1316C1.3632 9.39474 1.91584 8.65789 2.83689 8.28947L3.94215 3.5C4.12636 2.57895 4.67899 1.65789 5.41584 1.10526C6.33689 0.368421 7.25794 0 8.3632 0H20.1527C21.0737 0 21.9948 0.368421 22.9158 0.921053C23.8369 1.65789 24.2053 2.39474 24.5737 3.31579L25.679 7.92105C26.6 8.28947 27.3369 8.8421 27.8895 9.76316H5.23162C4.31057 9.76316 3.75794 10.1316 3.20531 10.6842C2.46847 11.2368 2.28426 11.9737 2.28426 12.7105V16.3947C2.28426 16.5789 2.28426 16.9474 2.46847 17.1316C2.65268 17.3158 2.83689 17.3158 3.20531 17.3158H16.6527V17.5ZM4.8632 14.3684C4.49478 14 4.49478 13.8158 4.49478 13.4474C4.49478 13.0789 4.67899 12.7105 4.8632 12.5263C5.04741 12.3421 5.41584 12.1579 5.78426 12.1579C6.15268 12.1579 6.5211 12.3421 6.70531 12.5263C6.88952 12.7105 7.07373 13.0789 7.07373 13.4474C7.07373 13.8158 6.88952 14.1842 6.70531 14.3684C6.5211 14.5526 6.15268 14.7368 5.78426 14.7368C5.41584 14.7368 5.04741 14.5526 4.8632 14.3684ZM6.15268 3.86842L5.23162 7.55263H23.1L22.179 3.86842C22.179 3.5 21.9948 3.31579 21.8106 2.94737C21.6264 2.76316 21.2579 2.57895 21.0737 2.39474C20.7053 2.21053 20.5211 2.21053 20.1527 2.21053H8.3632C7.81057 2.21053 7.44215 2.39474 6.88952 2.76316C6.5211 3.13158 6.33689 3.5 6.15268 3.86842ZM40.7843 20.0789C41.7053 20.4474 42.4421 21.1842 42.9948 22.1053C43.5474 23.0263 43.9158 23.9474 43.9158 24.8684V28.5526C43.9158 29.1053 43.7316 29.8421 43.179 30.3947C42.8106 30.9474 42.2579 31.3158 41.7053 31.5V33.8947C41.7053 34.2632 41.5211 34.4474 41.3369 34.6316C41.1527 34.8158 40.7843 35 40.6 35H39.4948C39.1264 35 38.9422 34.8158 38.7579 34.6316C38.5737 34.4474 38.3895 34.0789 38.3895 33.8947V31.6842H20.8895V33.8947C20.8895 34.2632 20.7053 34.4474 20.5211 34.6316C20.3369 34.8158 20.1527 35 19.7843 35H18.679C18.3106 35 18.1264 34.8158 17.9422 34.6316C17.7579 34.4474 17.5737 34.0789 17.5737 33.8947V31.5C17.0211 31.3158 16.4685 30.9474 16.1 30.3947C15.7316 29.8421 15.3632 29.2895 15.3632 28.5526V24.8684C15.3632 23.9474 15.5474 23.0263 16.1 22.1053C16.6527 21.3684 17.2053 20.6316 18.1264 20.2632L19.2316 15.4737C19.4158 14.5526 19.9685 13.6316 20.7053 13.0789C21.6264 12.3421 22.3632 12.1579 23.4685 12.1579H35.2579C36.179 12.1579 37.1 12.5263 38.0211 13.0789C38.9422 13.8158 39.3106 14.5526 39.679 15.4737L40.7843 20.0789ZM41.7053 28.5526V24.8684C41.7053 24.1316 41.3369 23.3947 40.7843 22.8421C40.2316 22.2895 39.4948 21.9211 38.7579 21.9211H20.5211C19.7843 21.9211 19.0474 22.2895 18.4948 22.8421C17.9422 23.3947 17.5737 24.1316 17.5737 24.8684V28.5526C17.5737 28.7368 17.5737 29.1053 17.7579 29.2895C17.9422 29.4737 18.3106 29.4737 18.4948 29.4737H40.6C40.7843 29.4737 41.1527 29.4737 41.3369 29.2895C41.5211 29.1053 41.7053 28.9211 41.7053 28.5526ZM20.1527 24.5C20.3369 24.3158 20.7053 24.1316 21.0737 24.1316C21.4422 24.1316 21.8106 24.3158 21.9948 24.5C22.179 24.6842 22.3632 25.0526 22.3632 25.4211C22.3632 25.7895 22.179 26.1579 21.9948 26.3421C21.8106 26.5263 21.4422 26.7105 21.0737 26.7105C20.7053 26.7105 20.3369 26.5263 20.1527 26.3421C19.9685 26.1579 19.7843 25.7895 19.7843 25.4211C19.7843 25.0526 19.9685 24.6842 20.1527 24.5ZM21.4422 15.8421L20.5211 19.5263H38.3895L37.4685 15.8421C37.4685 15.6579 37.2843 15.4737 37.2843 15.1053C37.2843 14.7368 36.9158 14.9211 36.7316 14.7368C36.5474 14.5526 36.3632 14.3684 35.9948 14.3684C35.8106 14.3684 35.4422 14.1842 35.2579 14.1842H23.4685C23.1 14.1842 22.5474 14.3684 22.179 14.7368C21.8106 15.1053 21.6264 15.4737 21.4422 15.8421ZM37.1 24.5C37.2843 24.3158 37.6527 24.1316 38.0211 24.1316C38.3895 24.1316 38.7579 24.3158 38.9422 24.5C39.1264 24.6842 39.3106 25.0526 39.3106 25.4211C39.3106 25.7895 39.1264 26.1579 38.9422 26.3421C38.7579 26.5263 38.3895 26.7105 38.0211 26.7105C37.6527 26.7105 37.2843 26.5263 37.1 26.3421C36.9158 26.1579 36.7316 25.7895 36.7316 25.4211C36.7316 25.0526 36.9158 24.6842 37.1 24.5Z" fill="#E62641"/>
</svg>
