<svg width="44" height="35" viewBox="0 0 44 35" fill="none" xmlns="http://www.w3.org/2000/svg">
<path d="M2.14371 15.6183C4.58995 14.4892 7.78887 15.6183 10.2351 16.371C10.7996 16.371 11.3641 16.5591 11.7405 16.7473C12.8695 16.9355 14.5631 16.7473 16.2566 16.5591C17.3856 16.371 18.3265 16.371 19.2674 16.371C22.2781 16.371 23.4072 18.0645 23.5953 18.8172L25.1007 22.0161C25.477 22.957 25.1007 24.086 24.1598 24.4624L20.3964 26.1559C20.5846 26.9086 20.3964 27.8495 20.2082 28.6021C19.8319 29.9193 18.891 30.8602 17.5738 31.4247C16.8211 31.8011 16.0684 31.9892 15.3158 31.9892C14.7512 31.9892 14.1867 31.8011 13.6222 31.6129C12.8695 31.2365 12.1168 30.8602 11.5523 30.1075L1.5792 34.6236C1.39103 34.6236 1.20285 34.8118 1.20285 34.8118C0.826509 34.8118 0.450165 34.6236 0.261993 34.2473C0.0738208 33.6828 0.261993 33.1183 0.826509 32.7419L10.7996 28.2258C10.4233 27.2849 10.4233 26.1559 10.7996 25.0269C11.176 23.7097 12.1168 22.7688 13.434 22.2043C14.5631 21.6398 16.0684 21.6398 17.1975 22.0161C18.1383 22.3925 19.0792 23.1452 19.6437 24.086L23.0308 22.5806L21.7136 19.5699C21.5254 19.1935 20.9609 18.4408 19.2674 18.2527C18.5147 18.2527 17.5738 18.4408 16.4448 18.4408C14.5631 18.629 12.6813 18.8172 11.176 18.629C10.7996 18.629 10.2351 18.4408 9.48242 18.2527C7.6007 17.6882 4.77812 16.7473 3.08457 17.5L1.5792 18.2527C1.01468 18.4408 0.450165 18.2527 0.0738208 17.8763C-0.114351 17.3118 0.0738208 16.7473 0.450165 16.371L2.14371 15.6183ZM18.3265 1.12902C18.891 0.188162 20.2082 -0.188182 21.1491 0.188162L42.6007 9.22042C43.3534 9.40859 43.5416 10.1613 43.3534 10.7258C43.1652 11.2903 42.4125 11.4785 41.848 11.2903L20.3964 2.25805L18.891 4.89246V5.08064L42.2244 24.4624C42.6007 24.8387 42.7889 25.5914 42.4125 25.9677C42.2244 26.1559 41.848 26.3441 41.6598 26.3441C41.4717 26.3441 41.0953 26.3441 40.9072 26.1559L30.5577 17.5V22.5806C30.5577 23.5215 30.934 24.2742 31.6867 25.0269C33.0039 26.1559 33.5684 27.2849 33.5684 28.6021C33.5684 30.672 31.8749 32.3656 29.2405 32.3656C27.3588 32.3656 25.6652 31.4247 24.7244 30.1075C24.348 29.7312 23.9717 28.7903 23.7835 28.0376C23.7835 27.6613 23.9717 27.2849 24.348 27.4731L26.4179 28.0376C26.6061 28.0376 26.6061 28.2258 26.6061 28.2258C27.1706 28.9785 27.9233 29.543 28.8641 29.543C29.6168 29.543 30.3695 29.1667 30.3695 28.2258C30.3695 26.7204 27.5469 25.5914 27.5469 23.1452V15.2419L17.5738 6.77418C17.1975 6.58601 16.8211 6.0215 16.633 5.45698C16.4448 4.89246 16.633 4.32795 17.0093 3.76343L18.3265 1.12902ZM15.3158 24.086C14.9394 24.086 14.5631 24.086 14.1867 24.2742C13.434 24.6505 12.8695 25.215 12.6813 25.9677C12.4932 26.5322 12.4932 26.9086 12.6813 27.4731C12.6813 27.6613 12.6813 28.0376 12.8695 28.2258C13.0577 28.6021 13.434 28.9785 13.8104 29.3548C13.9986 29.543 14.1867 29.7312 14.3749 29.7312C15.1276 29.9193 15.8803 29.9193 16.633 29.7312C17.3856 29.3548 17.9502 28.7903 18.1383 28.0376C18.1383 27.8495 18.1383 27.4731 18.3265 27.2849C18.3265 26.7204 18.3265 26.3441 18.1383 25.7796C17.9502 25.5914 17.9502 25.4032 17.762 25.215C17.3856 24.8387 17.0093 24.4624 16.633 24.2742C16.0684 24.2742 15.6921 24.086 15.3158 24.086Z" fill="#E52642"/>
</svg>
