<svg width="39" height="35" viewBox="0 0 39 35" fill="none" xmlns="http://www.w3.org/2000/svg">
<path d="M35.4737 28.118C36.2737 28.3146 36.8737 28.7079 37.2737 29.2978C37.6737 29.8876 38.0737 30.6742 38.0737 31.4607C38.0737 32.4438 37.6737 33.2303 37.0737 34.0169C36.4737 34.6067 35.4737 35 34.4737 35H3.67373C2.67373 35 1.87373 34.6067 1.07373 34.0169C0.47373 33.2303 0.0737305 32.4438 0.0737305 31.4607C0.0737305 30.6742 0.27373 29.8876 0.87373 29.2978C1.27373 28.7079 2.07373 28.3146 2.67373 28.118C0.87373 25.1685 0.0737305 22.0225 0.0737305 18.6798C0.0737305 13.5674 1.87373 9.04494 5.67373 5.50562C9.47373 1.96629 13.8737 0 19.0737 0C24.2737 0 28.8737 1.76966 32.4737 5.50562C36.0737 9.24157 38.0737 13.5674 38.0737 18.6798C38.0737 22.0225 37.2737 25.1685 35.4737 28.118ZM34.4737 32.6405C34.8737 32.6405 35.0737 32.4438 35.2737 32.2472C35.4737 32.0506 35.6737 31.6573 35.6737 31.4607C35.6737 31.0674 35.4737 30.8708 35.2737 30.6742C35.0737 30.4775 34.6737 30.2809 34.4737 30.2809H30.8737C30.4737 30.2809 30.2737 30.0843 30.0737 29.8876C29.8737 29.691 29.6737 29.2978 29.6737 29.1011C29.6737 28.7079 29.8737 28.5112 30.0737 28.3146C30.2737 28.118 30.6737 27.9214 30.8737 27.9214H32.6737C34.6737 25.1685 35.6737 22.0225 35.6737 18.4831C35.6737 13.9607 34.0737 10.0281 30.8737 6.88202C27.6737 3.93258 23.6737 2.35955 19.0737 2.35955C14.4737 2.35955 10.4737 3.93258 7.27373 7.07865C4.07373 10.2247 2.47373 14.1573 2.47373 18.6798C2.47373 22.0225 3.47373 25.1685 5.47373 28.118H7.27373C7.67373 28.118 7.87373 28.3146 8.07373 28.5112C8.27373 28.7079 8.47373 29.1011 8.47373 29.2978C8.47373 29.691 8.27373 29.8876 8.07373 30.0843C7.87373 30.2809 7.47373 30.4775 7.27373 30.4775H3.67373C3.27373 30.4775 3.07373 30.6742 2.87373 30.8708C2.67373 31.0674 2.47373 31.264 2.47373 31.4607C2.47373 31.8539 2.67373 32.0506 2.87373 32.2472C3.07373 32.4438 3.47373 32.6405 3.67373 32.6405H34.4737ZM10.6737 10.4213C13.0737 8.0618 15.8737 7.07865 19.0737 7.07865C22.2737 7.07865 25.0737 8.25843 27.4737 10.4213C29.8737 12.7809 30.8737 15.5337 30.8737 18.6798C30.8737 21.8258 29.6737 24.5787 27.4737 26.9382C25.0737 29.2978 22.2737 30.2809 19.0737 30.2809C15.8737 30.2809 13.0737 29.1011 10.6737 26.9382C8.27373 24.5787 7.27373 21.8258 7.27373 18.6798C7.27373 15.5337 8.27373 12.7809 10.6737 10.4213ZM9.67373 18.6798C9.67373 19.2697 9.67373 19.8596 9.87373 20.4494L14.4737 19.073C14.4737 18.8764 14.4737 18.8764 14.4737 18.8764C14.4737 17.6966 14.8737 16.7135 15.6737 15.927L12.6737 11.7978C10.6737 13.764 9.67373 15.927 9.67373 18.6798ZM17.8737 27.9214V23.2022C16.6737 23.0056 15.6737 22.2191 15.0737 21.236L10.4737 22.6124C11.0737 23.9888 12.0737 25.1685 13.4737 26.1517C15.0737 27.1348 16.4737 27.7247 17.8737 27.9214ZM19.0737 9.4382C17.4737 9.4382 16.0737 9.63483 14.4737 10.4213L17.2737 14.1573C17.8737 13.9607 18.4737 13.764 19.0737 13.764C19.6737 13.764 20.2737 13.9607 20.8737 14.1573L23.6737 10.4213C22.0737 9.63483 20.6737 9.4382 19.0737 9.4382ZM17.4737 17.1067C16.8737 17.5 16.6737 18.0899 16.6737 18.6798C16.6737 19.2697 16.8737 19.8596 17.4737 20.2528C17.8737 20.6461 18.4737 21.0393 19.0737 21.0393C19.6737 21.0393 20.2737 20.8427 20.6737 20.2528C21.0737 19.8596 21.4737 19.2697 21.4737 18.6798C21.4737 18.2865 21.2737 17.8933 21.0737 17.5C20.8737 17.1067 20.4737 16.9101 20.2737 16.7135C19.8737 16.5169 19.4737 16.3202 19.0737 16.3202C18.4737 16.3202 17.8737 16.5169 17.4737 17.1067ZM20.2737 27.9214C21.6737 27.7247 23.0737 27.1348 24.6737 26.1517C26.0737 25.1685 27.0737 23.9888 27.6737 22.6124L23.0737 21.236C22.4737 22.2191 21.4737 23.0056 20.2737 23.2022V27.9214ZM28.4737 20.4494C28.4737 19.8596 28.6737 19.2697 28.6737 18.6798C28.6737 15.927 27.6737 13.764 25.6737 11.7978L22.8737 15.7303C23.6737 16.5169 24.0737 17.6966 24.0737 18.6798V18.8764L28.4737 20.4494Z" fill="#E62641"/>
</svg>
