<svg width="25" height="25" viewBox="0 0 25 25" fill="none" xmlns="http://www.w3.org/2000/svg">
<path d="M23.4497 14.7734L21.8872 13.8457C21.8872 13.5039 21.936 12.9668 21.936 12.625C21.936 12.332 21.8872 11.7949 21.8872 11.4531L23.4497 10.5254C23.938 10.2812 24.1333 9.69531 23.9868 9.20703C23.4497 7.35156 22.4731 5.69141 21.2036 4.32422C20.813 3.93359 20.227 3.83594 19.7388 4.12891L18.1763 5.05664C17.6392 4.61719 16.7114 4.08008 16.0767 3.83594V2.0293C16.0767 1.44336 15.7349 1.00391 15.1978 0.857422C13.3423 0.417969 11.438 0.417969 9.58252 0.857422C9.04541 1.00391 8.70361 1.44336 8.70361 2.0293V3.83594C8.06884 4.08008 7.14111 4.61719 6.604 5.05664L5.0415 4.12891C4.55322 3.83594 3.96728 3.93359 3.57666 4.32422C2.30713 5.69141 1.33056 7.35156 0.793454 9.20703C0.64697 9.69531 0.842282 10.2812 1.33056 10.5254L2.89306 11.4531C2.89306 11.7949 2.84424 12.332 2.84424 12.625C2.84424 12.9668 2.89306 13.5039 2.89306 13.8457L1.33056 14.7734C0.842282 15.0176 0.64697 15.6035 0.793454 16.0918C1.33056 17.9473 2.30713 19.6074 3.57666 20.9746C3.96728 21.3652 4.55322 21.4629 5.0415 21.1699L6.604 20.2422C7.14111 20.6816 8.06884 21.2188 8.70361 21.4629V23.2695C8.70361 23.8555 9.04541 24.2949 9.58252 24.4414C11.438 24.8809 13.3423 24.8809 15.1978 24.4414C15.7349 24.2949 16.0767 23.8555 16.0767 23.2695V21.4629C16.7114 21.2188 17.6392 20.6816 18.1763 20.2422L19.7388 21.1699C20.227 21.4629 20.813 21.3652 21.2036 20.9746C22.4731 19.6074 23.4497 17.9473 23.9868 16.0918C24.1333 15.6035 23.938 15.0176 23.4497 14.7734ZM20.2759 19.6562L17.981 18.3379C16.6626 19.5098 16.2231 19.7539 14.5142 20.3887V22.9766C13.9282 23.123 13.0005 23.2207 12.4145 23.2207C11.7798 23.2207 10.852 23.123 10.2661 22.9766V20.3887C8.60595 19.8027 8.11767 19.5098 6.79931 18.3379L4.50439 19.6562C3.57666 18.582 2.84424 17.3125 2.35595 15.9453L4.65088 14.6758C4.30908 12.918 4.30908 12.3809 4.65088 10.623L2.35595 9.35352C2.84424 7.98633 3.57666 6.7168 4.50439 5.64258L6.79931 6.96094C8.11767 5.78906 8.60595 5.49609 10.2661 4.91016V2.32227C10.852 2.17578 11.7798 2.07812 12.4145 2.07812C13.0005 2.07812 13.9282 2.17578 14.5142 2.32227V4.91016C16.1743 5.49609 16.6626 5.78906 17.981 6.96094L20.2759 5.64258C21.2036 6.7168 21.936 7.98633 22.4243 9.35352L20.1294 10.623C20.4712 12.3809 20.4712 12.918 20.1294 14.6758L22.4243 15.9453C21.936 17.3125 21.2036 18.582 20.2759 19.6562ZM12.4145 7.9375C9.82666 7.9375 7.72705 10.0859 7.72705 12.625C7.72705 15.2129 9.82666 17.3125 12.4145 17.3125C14.9536 17.3125 17.102 15.2129 17.102 12.625C17.102 10.0859 14.9536 7.9375 12.4145 7.9375ZM12.4145 15.75C10.6567 15.75 9.28955 14.3828 9.28955 12.625C9.28955 10.916 10.6567 9.5 12.4145 9.5C14.1235 9.5 15.5395 10.916 15.5395 12.625C15.5395 14.3828 14.1235 15.75 12.4145 15.75Z" fill="#EB233D"/>
</svg>
