<svg width="29" height="26" viewBox="0 0 29 26" fill="none" xmlns="http://www.w3.org/2000/svg">
<path d="M13.5356 7.9375C13.3403 7.9375 13.2427 8.08398 13.2427 8.2793L13.5845 17.8496C13.5845 17.9961 13.731 18.0938 13.8774 18.0938H14.9028C15.0493 18.0938 15.1958 17.9961 15.1958 17.8496L15.5376 8.2793C15.5376 8.08398 15.4399 7.9375 15.2446 7.9375H13.5356ZM14.4145 19.0703C13.6333 19.0703 13.0474 19.7051 13.0474 20.4375C13.0474 21.2188 13.6333 21.8047 14.4145 21.8047C15.147 21.8047 15.7817 21.2188 15.7817 20.4375C15.7817 19.7051 15.147 19.0703 14.4145 19.0703ZM28.1353 21.6094L16.4165 1.29688C15.5376 -0.265625 13.2427 -0.265625 12.3638 1.29688L0.645017 21.6094C-0.23389 23.1719 0.889157 25.125 2.6958 25.125H26.1333C27.8911 25.125 29.063 23.1719 28.1353 21.6094ZM26.1333 23.5625H2.6958C2.06103 23.5625 1.71924 22.9277 2.0122 22.3906L13.731 2.07812C14.0239 1.58984 14.7563 1.58984 15.0493 2.07812L26.7681 22.3906C27.1099 22.9277 26.7192 23.5625 26.1333 23.5625Z" fill="#EB233D"/>
</svg>
