<svg width="33" height="26" viewBox="0 0 33 26" fill="none" xmlns="http://www.w3.org/2000/svg">
<path d="M12.5571 12.625H3.03564C2.64502 12.625 2.35205 12.332 2.35205 11.9414V9.25586C2.35205 8.13281 3.27978 7.20508 4.40283 7.15625H17.4399C17.4399 7.15625 17.4399 7.20508 17.4888 7.20508C17.4888 7.20508 17.5376 7.15625 17.5864 7.15625H20.4185C20.0767 6.7168 19.3931 6.17969 18.9048 5.93555L18.1235 2.56641C17.8306 1.24805 16.4634 0.125 15.0962 0.125H6.64892H6.60009C5.23291 0.125 3.86572 1.24805 3.57275 2.56641L2.7915 6.0332C1.61963 6.61914 0.789548 7.83984 0.789548 9.25586V11.9414C0.789548 12.8691 1.47314 13.7969 2.35205 14.0898V15.75C2.35205 16.1895 2.69384 16.5312 3.1333 16.5312H3.91455C4.30517 16.5312 4.6958 16.1895 4.6958 15.75V14.1875H11.6782C11.8735 13.9922 12.1177 13.7969 12.3618 13.6016L12.5571 12.625ZM5.08642 2.9082C5.28174 2.27344 5.96533 1.73633 6.64892 1.6875H15.0962C15.7798 1.73633 16.4634 2.27344 16.6099 2.9082L17.2446 5.59375H4.50049L5.08642 2.9082ZM3.91455 9.69531C3.91455 10.2812 4.30517 10.6719 4.89111 10.6719C5.42822 10.6719 5.86767 10.2812 5.86767 9.69531C5.86767 9.1582 5.42822 8.71875 4.89111 8.71875C4.30517 8.71875 3.91455 9.1582 3.91455 9.69531ZM15.8286 17.3125C15.2427 17.3125 14.852 17.752 14.852 18.2891C14.852 18.875 15.2427 19.2656 15.8286 19.2656C16.3657 19.2656 16.8052 18.875 16.8052 18.2891C16.8052 17.752 16.3657 17.3125 15.8286 17.3125ZM27.938 17.3125C27.352 17.3125 26.9614 17.752 26.9614 18.2891C26.9614 18.875 27.352 19.2656 27.938 19.2656C28.4751 19.2656 28.9145 18.875 28.9145 18.2891C28.9145 17.752 28.4751 17.3125 27.938 17.3125ZM29.8423 14.5293L29.061 11.1602C28.7681 9.8418 27.4009 8.71875 26.0337 8.71875H17.5864H17.5376C16.1704 8.71875 14.8032 9.8418 14.5103 11.1602L13.729 14.627C12.5571 15.2129 11.727 16.4336 11.727 17.8496V20.5352C11.727 21.4629 12.4106 22.3906 13.2895 22.6836V24.3438C13.2895 24.7832 13.6313 25.125 14.0708 25.125H14.852C15.2427 25.125 15.6333 24.7832 15.6333 24.3438V22.7812H28.1333V24.3438C28.1333 24.7832 28.4751 25.125 28.9145 25.125H29.6958C30.0864 25.125 30.477 24.7832 30.477 24.3438V22.6836C31.3071 22.3906 31.9907 21.4629 32.0395 20.5352V17.8496C31.9907 16.5312 31.0142 15.0664 29.8423 14.5293ZM16.0239 11.502C16.2192 10.8672 16.9028 10.3301 17.5864 10.2812H26.0337C26.7173 10.3301 27.4009 10.8672 27.5474 11.502L28.1821 14.1875H15.438L16.0239 11.502ZM30.477 20.5352C30.4282 20.9258 30.1353 21.2188 29.7446 21.2188H13.9731C13.5825 21.2188 13.2895 20.9258 13.2895 20.5352V17.8496C13.2895 16.7266 14.2173 15.7988 15.3403 15.75H28.3774C29.5005 15.7988 30.4282 16.7266 30.477 17.8496V20.5352Z" fill="#EB233D"/>
</svg>
