<svg width="26" height="26" viewBox="0 0 26 26" fill="none" xmlns="http://www.w3.org/2000/svg">
<path d="M22.7895 0.125H4.03955C2.28174 0.125 0.914548 1.54102 0.914548 3.25V17.3125C0.914548 19.0703 2.28174 20.4375 4.03955 20.4375H8.72705V24.5391C8.72705 24.9297 8.97119 25.125 9.31299 25.125C9.41064 25.125 9.5083 25.125 9.65478 25.0273L15.7583 20.4375H22.7895C24.4985 20.4375 25.9145 19.0703 25.9145 17.3125V3.25C25.9145 1.54102 24.4985 0.125 22.7895 0.125ZM24.352 17.3125C24.352 18.1914 23.6196 18.875 22.7895 18.875H15.2212L14.7817 19.2168L10.2895 22.5859V18.875H4.03955C3.16064 18.875 2.47705 18.1914 2.47705 17.3125V3.25C2.47705 2.41992 3.16064 1.6875 4.03955 1.6875H22.7895C23.6196 1.6875 24.352 2.41992 24.352 3.25V17.3125ZM7.16455 9.10938C6.48095 9.10938 5.99267 9.64648 5.99267 10.2812C5.99267 10.9648 6.48095 11.4531 7.16455 11.4531C7.79931 11.4531 8.33642 10.9648 8.33642 10.2812C8.33642 9.64648 7.79931 9.10938 7.16455 9.10938ZM13.4145 9.10938C12.731 9.10938 12.2427 9.64648 12.2427 10.2812C12.2427 10.9648 12.731 11.4531 13.4145 11.4531C14.0493 11.4531 14.5864 10.9648 14.5864 10.2812C14.5864 9.64648 14.0493 9.10938 13.4145 9.10938ZM19.6645 9.10938C18.981 9.10938 18.4927 9.64648 18.4927 10.2812C18.4927 10.9648 18.981 11.4531 19.6645 11.4531C20.2993 11.4531 20.8364 10.9648 20.8364 10.2812C20.8364 9.64648 20.2993 9.10938 19.6645 9.10938Z" fill="#EB233D"/>
</svg>
