<svg width="26" height="26" viewBox="0 0 26 26" fill="none" xmlns="http://www.w3.org/2000/svg">
<path d="M25.6704 5.74023C25.5728 5.30078 25.1821 4.91016 24.7427 4.76367C24.2544 4.66602 23.7661 4.76367 23.4243 5.10547L20.2993 8.23047L18.1509 7.88867L17.8091 5.74023L20.9341 2.61523C21.2759 2.27344 21.3735 1.78516 21.2759 1.29688C21.1294 0.857422 20.7388 0.466797 20.2993 0.369141C17.7603 -0.265625 15.1235 0.466797 13.3169 2.32227C11.4614 4.17773 10.729 6.81445 11.4126 9.35352L1.98877 18.8262C0.523923 20.2422 0.523923 22.6348 1.98877 24.0508C2.67236 24.7832 3.60009 25.125 4.57666 25.125C5.60205 25.125 6.52978 24.7832 7.21338 24.0508L16.6372 14.627C19.1763 15.3105 21.8618 14.5781 23.7173 12.7227C25.5728 10.8672 26.3052 8.2793 25.6704 5.74023ZM22.6431 11.6484C21.0806 13.1621 18.7856 13.6992 16.686 13.0156L16.1978 12.8691L6.13916 22.9766C5.30908 23.7578 3.89306 23.7578 3.06299 22.9766C2.23291 22.0977 2.23291 20.7793 3.06299 19.9004L13.1704 9.79297L13.0239 9.35352C12.3403 7.25391 12.8774 4.95898 14.3911 3.39648C15.5142 2.32227 16.979 1.6875 18.4927 1.6875C18.8345 1.6875 19.1763 1.73633 19.5181 1.78516L16.1001 5.20312L16.7837 9.25586L20.8364 9.89062L24.2544 6.52148C24.5474 8.37695 23.9614 10.2812 22.6431 11.6484ZM4.8208 20.4375C4.38134 20.4375 4.03955 20.8281 4.03955 21.2188C4.03955 21.6582 4.38134 22 4.8208 22C5.21142 22 5.60205 21.6582 5.60205 21.2188C5.60205 20.8281 5.21142 20.4375 4.8208 20.4375Z" fill="#EB233D"/>
</svg>
